<?xml version="1.0" encoding="UTF-8"?>
<svg version="1.1" xmlns="http://www.w3.org/2000/svg" width="672" height="868">
<path d="M0 0 C5.87409545 5.22983982 10.4206403 12.02933225 15.16015625 18.26953125 C18.43210824 22.57707421 21.74398575 26.85326716 25.0625 31.125 C25.96621338 32.28829834 25.96621338 32.28829834 26.88818359 33.47509766 C30.80389021 38.50102101 34.79601624 43.44886844 38.85546875 48.359375 C41.75513508 51.92982024 44.54704841 55.57823547 47.33862305 59.23339844 C49.87099263 62.54552703 52.44282166 65.81908872 55.0625 69.0625 C60.4846015 75.80759426 65.6377203 82.75338343 70.734375 89.74609375 C75.3693538 96.1051369 80.03620713 102.39562899 84.99609375 108.5078125 C87.67320339 111.8372393 90.26767309 115.2277265 92.86523438 118.61938477 C95.96921272 122.66848472 99.09775314 126.6977396 102.23583984 130.72045898 C111.224136 142.24474728 119.96005321 153.9373685 128.62133789 165.70825195 C139.04431091 179.86722606 139.04431091 179.86722606 149.75 193.8125 C152.845288 197.7614046 155.78421247 201.81246101 158.72265625 205.87890625 C161.32420937 209.44432811 163.97062781 212.97383597 166.625 216.5 C171.80694856 223.38427946 176.92771284 230.31191525 182.01611328 237.265625 C185.40090035 241.87825627 188.85803612 246.42223077 192.39868164 250.91650391 C194.66038995 253.85924193 196.75745368 256.90714793 198.87109375 259.95703125 C206.2709002 270.5340023 213.91324674 280.93503209 221.68798828 291.23852539 C225.29190858 296.02567126 228.80029034 300.87283942 232.26660156 305.76025391 C235.45000602 310.24502589 238.68263341 314.69184257 241.9375 319.125 C242.39842041 319.752854 242.85934082 320.38070801 243.33422852 321.02758789 C245.13473294 323.47639396 246.9348144 325.91729139 248.81640625 328.3046875 C250 330 250 330 250 332 C250.66 332 251.32 332 252 332 C253.12109375 333.40625 253.12109375 333.40625 254.4375 335.5 C262.63657599 348.19470462 271.43751066 360.46563139 280.32080078 372.68701172 C283.71833384 377.36689369 287.09787015 382.05980632 290.48046875 386.75048828 C293.25814067 390.59928309 296.05544867 394.4317307 298.875 398.25 C303.51283266 404.60373269 307.87265276 411.14957188 312.28491211 417.66064453 C316.49453001 423.85141353 320.81871388 429.93180222 325.28613281 435.93823242 C328.68217898 440.51881235 331.85346164 445.22191112 334.984375 449.98828125 C337.19539977 453.2919636 339.48994932 456.52433546 341.8125 459.75 C346.84378582 466.74284797 351.72778084 473.83120503 356.59130859 480.94140625 C358.97322957 484.4222308 361.36123767 487.89886812 363.75 491.375 C364.4459729 492.38796143 364.4459729 492.38796143 365.15600586 493.42138672 C367.58855683 496.95861023 370.03262382 500.4869263 372.5 504 C380.15068509 514.89809818 387.64860925 525.89789968 395 537 C396.43632272 539.16744728 397.87381264 541.33412157 399.3125 543.5 C399.94800781 544.4590625 400.58351563 545.418125 401.23828125 546.40625 C402.33830288 548.02579405 403.48224786 549.61732191 404.6875 551.16015625 C406 553 406 553 406.6875 555.9375 C406 559 406 559 404.60473633 560.20166016 C398.62978891 563.82214161 392.4027075 566.65768687 386 569.4375 C384.84677246 569.94394043 383.69354492 570.45038086 382.50537109 570.97216797 C380.01003259 572.06791585 377.51300962 573.15969715 375.01464844 574.24853516 C370.7692886 576.09914719 366.5291455 577.96155602 362.2890625 579.82421875 C356.70723742 582.27427871 351.12485971 584.7230701 345.5390625 587.1640625 C344.39646973 587.66373535 343.25387695 588.1634082 342.07666016 588.67822266 C333.0965507 592.53620651 333.0965507 592.53620651 329 591 C319.87738928 583.6032886 313.58981089 571.64936595 307 562 C306.25234375 560.92363281 305.5046875 559.84726562 304.734375 558.73828125 C303 556 303 556 303 554 C302.34 554 301.68 554 301 554 C299.4765625 551.97265625 299.4765625 551.97265625 297.625 549.0625 C294.34965033 544.02620965 290.98178098 539.08315497 287.5 534.1875 C283.29947847 528.27120557 279.13973783 522.32860879 275.00805664 516.36401367 C269.7731748 508.80704417 264.52963767 501.26634225 259.0625 493.875 C255.59220177 489.18251947 252.16096017 484.46797678 248.8125 479.6875 C248.07644531 478.63949219 247.34039062 477.59148437 246.58203125 476.51171875 C245 474 245 474 245 472 C244.34 472 243.68 472 243 472 C241.6953125 470.19140625 241.6953125 470.19140625 240.125 467.5625 C237.05665227 462.60253172 233.81838776 457.81452557 230.4375 453.0625 C229.92767578 452.34497559 229.41785156 451.62745117 228.89257812 450.88818359 C227.8174824 449.37546455 226.7421176 447.86293672 225.66650391 446.35058594 C222.80111541 442.30898611 219.96366894 438.2478896 217.125 434.1875 C216.54105469 433.35307373 215.95710937 432.51864746 215.35546875 431.65893555 C212.38557856 427.4145489 209.41919782 423.16774929 206.45703125 418.91796875 C200.19662926 409.94409056 193.89199818 401.00890494 187.43725586 392.17333984 C184.7782954 388.52100249 182.16977632 384.83845298 179.625 381.10546875 C179.12226563 380.3683667 178.61953125 379.63126465 178.1015625 378.87182617 C177 377 177 377 177 375 C176.34 375 175.68 375 175 375 C173.78514615 373.27578573 172.65181296 371.49365116 171.5625 369.6875 C169.5716837 366.39813829 167.71047873 363.69602284 165 361 C163.98696266 359.34122541 162.98973118 357.67278509 162 356 C160.16466364 353.305225 158.26777036 350.65464018 156.375 348 C155.28858768 346.46908685 154.20265389 344.937834 153.1171875 343.40625 C152.58448242 342.65472656 152.05177734 341.90320313 151.50292969 341.12890625 C149.48190234 338.26611247 147.48900435 335.38514916 145.5 332.5 C142.11916987 327.59901244 138.69309416 322.73240103 135.25 317.875 C130.26287532 310.83818477 125.37361577 303.73836563 120.54003906 296.59521484 C117.16103594 291.6214687 113.63652741 286.78791887 110 282 C102.46011036 271.84608048 95.35652845 261.39620512 88.23828125 250.9453125 C85.97523605 247.62668987 83.69459071 244.32078418 81.40136719 241.02294922 C80.43818204 239.63253944 79.48080718 238.23809229 78.52832031 236.84033203 C77.07665157 234.71518419 75.60358422 232.60647959 74.125 230.5 C73.68478516 229.84636475 73.24457031 229.19272949 72.79101562 228.51928711 C70.26704412 224.91010814 70.26704412 224.91010814 66.2421875 223.53125 C64.03924268 223.7782759 64.03924268 223.7782759 63 225 C62.16619359 235.74327492 63.50848635 246.82827747 64.16748047 257.55181885 C65.32555318 276.44577509 66.3218262 295.33836009 67.1093502 314.25109291 C67.65084653 327.17046279 68.33604498 340.07393164 69.14642906 352.9790554 C71.12947371 384.71341466 72.72425491 416.46795099 74.33375561 448.22290945 C74.65222916 454.50228215 74.97373682 460.78149689 75.29593152 467.06067961 C75.64945118 473.95165283 76.00096063 480.84272717 76.35154152 487.73385048 C76.49881469 490.62803795 76.64677815 493.52218886 76.79532433 496.41631126 C77.00062717 500.41830682 77.20298286 504.42044614 77.4050293 508.42260742 C77.46577133 509.59993942 77.52651337 510.77727142 77.58909607 511.99028015 C78.34978438 527.18775988 78.34978438 527.18775988 77.04956055 530.20703125 C73.84520512 533.01022199 70.16716181 534.22072121 66.20703125 535.6875 C64.87739098 536.19667717 64.87739098 536.19667717 63.52088928 536.71614075 C60.62246332 537.82266588 57.71770688 538.91141732 54.8125 540 C52.81421816 540.7589634 50.816336 541.51897995 48.81884766 542.2800293 C42.88530965 544.53628925 36.94329657 546.76960128 31 549 C29.31648804 549.63341113 27.63305246 550.26702532 25.94970703 550.90087891 C14.60824126 555.16981516 14.60824126 555.16981516 9.02661133 557.24414062 C7.83962646 557.68564453 6.6526416 558.12714844 5.4296875 558.58203125 C4.33108398 558.9901001 3.23248047 559.39816895 2.10058594 559.81860352 C-1.60664089 561.23114451 -5.26502988 562.74694202 -8.90966797 564.31347656 C-12.35441734 565.44482849 -14.55864907 565.07542217 -18 564 C-21.3111599 559.03326015 -21.1153925 553.35993766 -21.35717773 547.51635742 C-21.41070908 546.26259811 -21.46424042 545.00883881 -21.51939392 543.71708679 C-21.57425104 542.3465524 -21.62897991 540.97601286 -21.68359375 539.60546875 C-21.74438336 538.14015173 -21.80543029 536.67484537 -21.86671448 535.20954895 C-21.99578997 532.10519885 -22.12246394 529.00076307 -22.24731445 525.89624023 C-22.39940476 522.11605699 -22.55599037 518.33608058 -22.71432114 514.55615425 C-23.05044925 506.52229513 -23.36736696 498.4878299 -23.67237473 490.45273018 C-23.85797576 485.58960927 -24.05187333 480.72698488 -24.25793457 475.86468506 C-26.06006065 433.20765652 -26.39864923 390.60210617 -26.37595081 347.91359043 C-26.3749921 345.22787181 -26.37530587 342.54215634 -26.37606049 339.85643768 C-26.39262852 279.355392 -25.28502186 219.02231214 -22.39992619 158.58202267 C-22.06718857 151.56451409 -21.76581286 144.54600719 -21.47583008 137.52661133 C-21.38912996 135.44806839 -21.30240939 133.36952631 -21.21566772 131.29098511 C-21.0921928 128.32867562 -20.96966041 125.3663494 -20.85100174 122.40384293 C-20.25050163 107.445598 -19.17327512 92.56508209 -17.83178711 77.65659142 C-17.22439487 70.89892021 -16.74825454 64.15626863 -16.5 57.375 C-16.15181779 47.97210766 -15.33660033 38.61957633 -14.5 29.25 C-14.43401611 28.50917175 -14.36803223 27.76834351 -14.30004883 27.00506592 C-13.88192491 22.33519313 -13.44598856 17.66729255 -13 13 C-12.91153809 12.03449219 -12.82307617 11.06898438 -12.73193359 10.07421875 C-12.01350939 2.78170098 -12.01350939 2.78170098 -9 0 C-5.19105155 -1.26964948 -3.83507631 -1.30247875 0 0 Z " fill="#4E6FB1" transform="translate(127,172)"/>
<path d="M0 0 C5.76563729 1.94311533 9.550708 6.98663675 13.48217773 11.44555664 C16.0615552 14.33466526 18.86088014 17.00454419 21.62475586 19.71508789 C23.63312047 21.68716723 25.63694433 23.6637879 27.640625 25.640625 C28.33349609 26.31673828 29.02636719 26.99285156 29.74023438 27.68945312 C30.39443359 28.33720703 31.04863281 28.98496094 31.72265625 29.65234375 C32.31925049 30.23846436 32.91584473 30.82458496 33.53051758 31.4284668 C34.828125 32.953125 34.828125 32.953125 34.828125 34.953125 C35.488125 34.953125 36.148125 34.953125 36.828125 34.953125 C38.02734375 36.17578125 38.02734375 36.17578125 39.515625 38.015625 C43.85233372 43.14082621 48.61988912 47.79935402 53.40893555 52.49633789 C56.22442587 55.27484431 58.96959855 58.03880014 61.4765625 61.1015625 C63.79162211 63.9088607 66.22334454 66.41443599 68.828125 68.953125 C69.93075132 70.04189244 71.03223888 71.13181389 72.1328125 72.22265625 C72.71337402 72.79790039 73.29393555 73.37314453 73.89208984 73.96582031 C86.98627064 86.97880236 86.98627064 86.97880236 89.828125 90.953125 C89.828125 91.613125 89.828125 92.273125 89.828125 92.953125 C90.42665283 93.21810791 91.02518066 93.48309082 91.6418457 93.75610352 C93.90604927 94.99578973 95.14346098 96.15477178 96.80859375 98.10546875 C97.33259766 98.71712891 97.85660156 99.32878906 98.39648438 99.95898438 C98.93080078 100.59642578 99.46511719 101.23386719 100.015625 101.890625 C100.56154297 102.52419922 101.10746094 103.15777344 101.66992188 103.81054688 C105.6950574 108.55392219 105.6950574 108.55392219 106.828125 111.953125 C108.15294973 112.6365441 109.48757275 113.30109595 110.828125 113.953125 C112.57421875 115.6875 112.57421875 115.6875 114.265625 117.703125 C114.87019531 118.41597656 115.47476563 119.12882812 116.09765625 119.86328125 C117.55234222 121.62006904 119.00331557 123.37981545 120.453125 125.140625 C122.78397951 127.98076283 122.78397951 127.98076283 125.390625 130.515625 C127.74917783 132.87417783 129.74676233 135.35142166 131.828125 137.953125 C132.570625 138.695625 133.313125 139.438125 134.078125 140.203125 C140.25479559 146.37979559 145.78034415 153.08850406 151.27734375 159.8671875 C154.76521182 164.1240893 158.40553549 168.2497887 162.0234375 172.39599609 C165.25747185 176.11191671 168.42108956 179.86918728 171.515625 183.703125 C174.50808347 187.40130037 177.60812978 190.95119471 180.828125 194.453125 C194.17333385 208.98875154 194.17333385 208.98875154 195.828125 213.953125 C196.488125 213.953125 197.148125 213.953125 197.828125 213.953125 C199.09863281 215.4152832 199.09863281 215.4152832 200.53125 217.44140625 C203.7123108 221.82645036 207.1080832 225.98275754 210.578125 230.140625 C214.7568411 235.17786139 218.86866586 240.24158524 222.828125 245.453125 C226.70803463 250.55826925 230.73368683 255.51867579 234.828125 260.453125 C239.89205729 266.5572274 244.808681 272.74208662 249.609375 279.0546875 C251.60285496 281.65884617 253.63806982 284.21815939 255.703125 286.765625 C260.83831761 293.13998474 265.70829005 299.7186314 270.58447266 306.29199219 C271.59735411 307.64488685 272.63672422 308.97791812 273.68359375 310.3046875 C274.828125 311.953125 274.828125 311.953125 274.828125 313.953125 C275.488125 313.953125 276.148125 313.953125 276.828125 313.953125 C278.28125 315.69140625 278.28125 315.69140625 280.078125 318.265625 C281.13966797 319.76222656 281.13966797 319.76222656 282.22265625 321.2890625 C282.83101318 322.14902832 282.83101318 322.14902832 283.45166016 323.02636719 C286.1801514 326.8456742 288.97812995 330.61429492 291.765625 334.390625 C292.37680176 335.22037842 292.98797852 336.05013184 293.61767578 336.9050293 C296.86986189 341.3165958 300.14448632 345.70879342 303.453125 350.078125 C307.44568825 355.38189906 311.27179398 360.79355418 315.08618164 366.22583008 C318.98089553 371.76837901 322.92237347 377.27550323 326.890625 382.765625 C327.43879883 383.52439941 327.98697266 384.28317383 328.55175781 385.06494141 C331.46713034 389.10651332 331.46713034 389.10651332 334.49780273 393.0612793 C335.828125 394.953125 335.828125 394.953125 335.828125 396.953125 C336.488125 396.953125 337.148125 396.953125 337.828125 396.953125 C338.37984375 397.94957031 338.9315625 398.94601562 339.5 399.97265625 C341.81293165 404.01825418 344.40903989 407.82397802 347.078125 411.640625 C348.06970768 413.06982899 349.06058984 414.49951925 350.05078125 415.9296875 C350.53047363 416.62223633 351.01016602 417.31478516 351.50439453 418.02832031 C353.20659111 420.50344348 354.86381979 423.00664693 356.515625 425.515625 C360.48088797 431.50031056 364.59383174 437.3791866 368.703125 443.265625 C374.46892328 451.52867797 380.15240849 459.83369802 385.69677734 468.24658203 C386.83051203 469.95672563 387.97746641 471.65720426 389.12890625 473.35546875 C394.54831136 481.36783186 399.74880251 489.50988403 404.890625 497.703125 C405.55860107 498.76394287 406.22657715 499.82476074 406.91479492 500.91772461 C407.84835815 502.41251343 407.84835815 502.41251343 408.80078125 503.9375 C409.36031494 504.83178711 409.91984863 505.72607422 410.49633789 506.64746094 C411.828125 508.953125 411.828125 508.953125 412.828125 511.953125 C413.488125 511.953125 414.148125 511.953125 414.828125 511.953125 C415.13105469 512.59378906 415.43398438 513.23445312 415.74609375 513.89453125 C418.0189372 518.5870788 420.31058048 522.97039484 423.51953125 527.08984375 C425.05667231 529.27854907 426.33999303 531.58361827 427.65209961 533.91186523 C429.94056134 537.8840115 432.40157568 541.75191022 434.828125 545.640625 C439.98161588 553.92720828 445.04789761 562.26148839 450.04492188 570.64331055 C450.51349609 571.42875244 450.98207031 572.21419434 451.46484375 573.0234375 C451.87436279 573.71195801 452.28388184 574.40047852 452.70581055 575.10986328 C453.70475004 576.75049699 454.76264438 578.35490408 455.828125 579.953125 C456.46086836 585.64781527 456.46086836 585.64781527 455.828125 587.953125 C451.99671322 591.6511414 447.29638358 594.18761018 442.703125 596.828125 C441.89053223 597.29645752 441.07793945 597.76479004 440.24072266 598.24731445 C367.24297814 639.82582193 367.24297814 639.82582193 348.828125 637.953125 C342.88644653 633.95022206 339.46728157 628.43397204 335.578125 622.515625 C334.25127573 620.53039676 332.92315013 618.54602098 331.59375 616.5625 C330.95115234 615.60021484 330.30855469 614.63792969 329.64648438 613.64648438 C327.27570154 610.13487371 324.81674388 606.69418101 322.328125 603.265625 C320.82272504 601.16523216 319.32504135 599.05959648 317.828125 596.953125 C317.10238281 595.93605469 316.37664062 594.91898438 315.62890625 593.87109375 C314.97277344 592.90816406 314.31664062 591.94523438 313.640625 590.953125 C313.06957031 590.128125 312.49851562 589.303125 311.91015625 588.453125 C310.4485501 585.07612883 310.59140069 583.41043609 311.828125 579.953125 C315.75216269 577.00253943 319.77679762 574.950824 324.28515625 573.04296875 C325.47947266 572.52798828 326.67378906 572.01300781 327.90429688 571.48242188 C329.78341878 570.67983648 331.66391912 569.88079952 333.54663086 569.08666992 C335.38010684 568.31057662 337.2077417 567.52072887 339.03515625 566.73046875 C340.1228833 566.26890381 341.21061035 565.80733887 342.33129883 565.33178711 C345.13918639 564.14933169 345.13918639 564.14933169 345.828125 560.953125 C344.43666991 558.35954888 343.00169433 555.96733912 341.390625 553.515625 C340.92688477 552.79334717 340.46314453 552.07106934 339.98535156 551.3269043 C338.61118927 549.19449381 337.22272431 547.07221167 335.828125 544.953125 C335.18230469 543.96828125 334.53648437 542.9834375 333.87109375 541.96875 C332.26596044 539.54881046 330.64705851 537.1386727 329.02294922 534.73144531 C327.66032433 532.70337836 326.30817727 530.66854503 324.95703125 528.6328125 C300.65613054 492.02159678 300.65613054 492.02159678 275.4543457 456.02929688 C272.69208948 452.18443834 269.99948074 448.29924024 267.328125 444.390625 C263.43929359 438.74042234 259.32357676 433.3185072 255.08984375 427.92578125 C251.70281162 423.47408617 248.69823263 419.25176329 246.828125 413.953125 C246.168125 413.953125 245.508125 413.953125 244.828125 413.953125 C243.57081351 412.25258859 242.39882164 410.48876819 241.265625 408.703125 C237.72666903 403.25710053 233.97369093 398.05658357 230.04296875 392.8828125 C227.95383431 390.11940716 225.91525854 387.32648445 223.890625 384.515625 C219.80869313 378.88592721 215.58456352 373.37110054 211.32177734 367.87792969 C209.63066826 365.6986711 207.94243484 363.51719601 206.25390625 361.3359375 C205.00801935 359.72900627 203.76192684 358.12223443 202.515625 356.515625 C201.63559814 355.37951782 201.63559814 355.37951782 200.73779297 354.22045898 C198.20000858 350.95495423 195.64986053 347.71391556 192.98046875 344.5546875 C191.15347054 342.34637388 190.05526256 340.49505279 188.828125 337.953125 C188.19390625 337.32857422 188.19390625 337.32857422 187.546875 336.69140625 C185.28031171 334.39908656 183.40723106 331.89248345 181.453125 329.328125 C181.02394775 328.76689941 180.59477051 328.20567383 180.15258789 327.62744141 C178.17613453 325.04152604 176.20624971 322.4506392 174.23681641 319.859375 C166.77145989 310.03899538 159.20330407 300.36547491 151.27734375 290.91015625 C150.44847656 289.91371094 149.61960937 288.91726563 148.765625 287.890625 C148.01152344 286.99214844 147.25742187 286.09367187 146.48046875 285.16796875 C144.828125 282.953125 144.828125 282.953125 144.828125 280.953125 C144.168125 280.953125 143.508125 280.953125 142.828125 280.953125 C141.3828125 279.3359375 141.3828125 279.3359375 139.703125 277.078125 C136.38153566 272.66794756 132.93601053 268.38163443 129.4296875 264.1171875 C127.828125 261.953125 127.828125 261.953125 126.828125 258.953125 C126.168125 258.953125 125.508125 258.953125 124.828125 258.953125 C123.63790131 257.3125464 122.45132469 255.66757237 121.33984375 253.97265625 C119.39890667 251.37972481 117.12334402 249.23835032 114.828125 246.953125 C112.87024736 244.75868345 110.97495137 242.51288148 109.078125 240.265625 C105.49026626 236.04276652 101.87482383 231.86077451 98.140625 227.765625 C95.1489434 224.47370295 92.30288077 221.10721193 89.515625 217.640625 C85.62621342 212.8280721 81.5006925 208.3071398 77.2746582 203.79418945 C73.33716673 199.565636 69.6757535 195.16287526 66.05859375 190.65625 C62.87353042 186.7962433 59.49101791 183.13048128 56.08984375 179.4609375 C54.5536909 177.75763849 53.07769573 175.99852489 51.66015625 174.1953125 C50.02395401 171.88034695 50.02395401 171.88034695 47.828125 170.953125 C46.8216975 169.29033173 45.82227093 167.62329016 44.828125 165.953125 C44.27125 165.39625 43.714375 164.839375 43.140625 164.265625 C42.7075 163.8325 42.274375 163.399375 41.828125 162.953125 C41.828125 162.293125 41.828125 161.633125 41.828125 160.953125 C41.168125 160.953125 40.508125 160.953125 39.828125 160.953125 C38.43486546 159.40072159 37.11432372 157.78282515 35.828125 156.140625 C32.61067158 152.11365206 29.32774278 148.24255488 25.828125 144.453125 C12.48878295 129.9257478 12.48878295 129.9257478 9.828125 123.953125 C9.168125 123.953125 8.508125 123.953125 7.828125 123.953125 C3.828125 119.48253676 3.828125 119.48253676 3.828125 116.953125 C2.838125 116.623125 1.848125 116.293125 0.828125 115.953125 C-3.171875 111.49598214 -3.171875 111.49598214 -3.171875 108.953125 C-4.161875 108.623125 -5.151875 108.293125 -6.171875 107.953125 C-10.171875 103.49598214 -10.171875 103.49598214 -10.171875 100.953125 C-10.831875 100.953125 -11.491875 100.953125 -12.171875 100.953125 C-13.6796875 99.4921875 -13.6796875 99.4921875 -15.296875 97.578125 C-15.83570313 96.95164062 -16.37453125 96.32515625 -16.9296875 95.6796875 C-18.171875 93.953125 -18.171875 93.953125 -18.171875 91.953125 C-18.831875 91.953125 -19.491875 91.953125 -20.171875 91.953125 C-21.546875 90.37109375 -21.546875 90.37109375 -23.171875 88.140625 C-26.03298649 84.33977605 -29.0631411 80.81766173 -32.296875 77.328125 C-39.81441782 69.09899798 -39.81441782 69.09899798 -42.171875 64.953125 C-41.84109526 60.62505585 -40.64503205 57.50423063 -38.5 53.765625 C-37.95923828 52.81171875 -37.41847656 51.8578125 -36.86132812 50.875 C-36.30380859 49.91078125 -35.74628906 48.9465625 -35.171875 47.953125 C-34.14537138 46.14088658 -33.11932417 44.32838957 -32.09375 42.515625 C-31.03676534 40.66128331 -29.97946561 38.80712117 -28.921875 36.953125 C-24.23850416 28.73302951 -19.71298419 20.45622767 -15.50683594 11.98046875 C-11.94910493 4.99573701 -8.4499641 -0.35419011 0 0 Z " fill="#3A426C" transform="translate(170.171875,37.046875)"/>
<path d="M0 0 C8.29527887 5.85646688 13.53991016 15.33387713 19.00390625 23.703125 C21.15565359 26.99448718 23.36237124 30.24379652 25.58984375 33.484375 C26.22647949 34.41789795 26.86311523 35.3514209 27.51904297 36.31323242 C28.77721889 38.15726552 30.04293196 39.9961834 31.31689453 41.8293457 C36.92656893 50.10451568 36.92656893 50.10451568 36.875 55.0625 C36.05307831 57.92400515 35.23158523 58.8230221 32.7578125 60.484375 C24.85792065 64.2888555 16.80290545 67.56542351 8.64379883 70.76831055 C2.97277887 73.00960169 -2.65424655 75.34857792 -8.27734375 77.70703125 C-20.63644082 82.87301068 -33.03200299 87.94667221 -45.4375 93 C-47.60240796 93.88265346 -49.76728392 94.76538544 -51.93212891 95.64819336 C-57.10193612 97.75616158 -62.27214828 99.86313402 -67.44256592 101.96960449 C-70.4660168 103.20143938 -73.48929865 104.43368855 -76.51254272 105.66603088 C-81.41030127 107.66246227 -86.30844587 109.65794205 -91.20703125 111.65234375 C-95.22595973 113.28865488 -99.24411714 114.92684005 -103.26171875 116.56640625 C-113.66690203 120.81123536 -124.07618775 125.04535399 -134.49609375 129.25390625 C-135.41032608 129.62332336 -136.32455841 129.99274048 -137.26649475 130.37335205 C-141.8079303 132.20842293 -146.34986717 134.04222933 -150.89282227 135.87353516 C-160.84226122 139.88965459 -170.75248533 143.98803016 -180.63427734 148.16772461 C-184.83280249 149.94259608 -189.04067753 151.69394886 -193.25390625 153.43359375 C-193.87860809 153.69156235 -194.50330994 153.94953094 -195.14694214 154.21531677 C-197.6401972 155.24418919 -200.13394091 156.27187542 -202.62768555 157.29956055 C-204.50333993 158.07280491 -206.37862971 158.84693348 -208.25390625 159.62109375 C-209.33744385 160.06767334 -210.42098145 160.51425293 -211.53735352 160.97436523 C-213.08615929 161.62565567 -214.62220831 162.31110416 -216.125 163.0625 C-220.48913314 163.69002241 -225.08421505 164.26072021 -229.0078125 161.95703125 C-232.20078773 158.57180882 -233.77626932 154.62907284 -235.375 150.3125 C-237.30107368 145.20385976 -239.28871271 140.12914797 -241.3515625 135.07421875 C-241.62882172 134.39390091 -241.90608093 133.71358307 -242.19174194 133.01264954 C-243.04349197 130.92468857 -243.89654871 128.8372661 -244.75 126.75 C-254.96166127 101.76871966 -254.96166127 101.76871966 -254.125 97.0625 C-251.35770182 93.01038481 -248.36474758 91.61492654 -243.86328125 89.79296875 C-242.79190918 89.35637939 -241.72053711 88.91979004 -240.61669922 88.4699707 C-238.88830811 87.77327271 -238.88830811 87.77327271 -237.125 87.0625 C-234.7174477 86.08072971 -232.30989562 85.09895885 -229.90234375 84.1171875 C-227.96548849 83.33065156 -226.02822928 82.54511771 -224.09088135 81.75979614 C-221.276938 80.6190369 -218.46359633 79.47679706 -215.65020752 78.33467102 C-213.50074041 77.46208908 -211.35120465 76.58967644 -209.20166016 75.71728516 C-193.09862099 69.1812486 -177.00827426 62.61496239 -160.9375 56 C-159.84511017 55.55036392 -159.84511017 55.55036392 -158.73065186 55.09164429 C-150.72265856 51.79428115 -142.72147358 48.48181612 -134.73388672 45.13525391 C-123.68447846 40.5060142 -112.5809337 36.02137025 -101.45239258 31.58666992 C-93.3088224 28.3408247 -85.17868786 25.06383348 -77.0625 21.75 C-75.46462646 21.09837891 -75.46462646 21.09837891 -73.83447266 20.43359375 C-68.73531562 18.35370384 -63.63684462 16.27216805 -58.54003906 14.18652344 C-54.41132507 12.49733309 -50.2809346 10.81229086 -46.14968872 9.12930298 C-44.53182562 8.46939226 -42.91451813 7.80811741 -41.29782104 7.14535522 C-10.24646089 -5.58172967 -10.24646089 -5.58172967 0 0 Z " fill="#39416B" transform="translate(365.125,662.9375)"/>
<path d="M0 0 C2.41318658 2.0583062 3.73930746 3.96818373 5.125 6.8125 C5.125 7.4725 5.125 8.1325 5.125 8.8125 C5.785 8.8125 6.445 8.8125 7.125 8.8125 C8.79286974 11.28430696 10.34992107 13.75445757 11.875 16.3125 C14.61803815 20.85593615 17.29201212 25.20465054 20.75 29.25 C23.37403056 32.62909348 23.80104006 35.41047034 23.82421875 39.63671875 C22.37067339 44.15976212 18.9205111 46.39571308 14.859375 48.5234375 C13.53613862 49.08968807 12.20751773 49.64344969 10.875 50.1875 C9.28640166 50.85877264 7.69929436 51.53357935 6.11328125 52.2109375 C5.19627441 52.60249023 4.27926758 52.99404297 3.33447266 53.39746094 C-0.50241764 55.08912503 -4.29078811 56.8730444 -8.08203125 58.6640625 C-10.29441972 59.70064773 -12.50751381 60.7357117 -14.7208252 61.77032471 C-16.18906068 62.46061935 -17.65469362 63.15647906 -19.11755371 63.85809326 C-34.37505322 71.16356513 -34.37505322 71.16356513 -41.875 69.8125 C-46.16446666 67.32340103 -48.73546565 63.59392314 -51.5 59.5625 C-51.92023438 58.96203857 -52.34046875 58.36157715 -52.7734375 57.74291992 C-54.14904092 55.77181171 -55.5127231 53.79283825 -56.875 51.8125 C-57.88272202 50.35540617 -58.89053602 48.89837595 -59.8984375 47.44140625 C-70.59396711 31.94797932 -70.59396711 31.94797932 -69.875 26.8125 C-66.63252264 23.04376051 -63.57901289 20.89134008 -59.046875 18.9140625 C-57.90283203 18.41036133 -56.75878906 17.90666016 -55.58007812 17.38769531 C-54.34572506 16.86105008 -53.11068217 16.33601912 -51.875 15.8125 C-51.25004639 15.54530151 -50.62509277 15.27810303 -49.98120117 15.00280762 C-45.37437984 13.0355245 -40.7516691 11.10753971 -36.125 9.1875 C-34.09838075 8.34465141 -32.07207391 7.50106506 -30.04620361 6.65641785 C-28.7487145 6.1155023 -27.45083066 5.57553251 -26.15252686 5.03657532 C-21.97478967 3.29575993 -17.85111311 1.46561426 -13.77148438 -0.49389648 C-9.09925591 -2.20267623 -4.5300596 -1.87111157 0 0 Z " fill="#5070B1" transform="translate(543.875,753.1875)"/>
<path d="M0 0 C2.375 2.0625 2.375 2.0625 4 4 C3.67 4.66 3.34 5.32 3 6 C2.484375 5.67 1.96875 5.34 1.4375 5 C-1.78026512 3.67989123 -4.5570528 3.86757895 -8 4 C-9.86094772 11.3197277 -10.55761615 18.46783285 -11 26 C-11.66 26 -12.32 26 -13 26 C-12.98404785 26.77206787 -12.9680957 27.54413574 -12.95166016 28.33959961 C-12.84198696 38.1852612 -13.45016571 47.90709547 -14.16802979 57.72103882 C-15.56768108 76.93662895 -16.58783808 96.15185054 -17.35302734 115.40258789 C-17.40828583 116.76080154 -17.40828583 116.76080154 -17.46466064 118.14645386 C-17.53210548 119.8159571 -17.5969471 121.48556891 -17.65838623 123.15530396 C-17.81864343 127.14458238 -18.09026381 131.09320478 -18.50927734 135.06420898 C-18.97053993 139.45267552 -19.19273042 143.80091571 -19.28125 148.2109375 C-19.29965942 148.94518951 -19.31806885 149.67944153 -19.33703613 150.4359436 C-19.39489443 152.74889367 -19.44804773 155.06191027 -19.5 157.375 C-19.56881202 160.42459456 -19.64249269 163.47402104 -19.71875 166.5234375 C-19.73232544 167.19571381 -19.74590088 167.86799011 -19.7598877 168.56063843 C-19.85863412 172.50365461 -20.11657852 176.39955803 -20.48413086 180.3269043 C-21.22963473 188.95247263 -21.35024902 197.59412113 -21.53515625 206.24609375 C-21.55636662 207.19534729 -21.57757698 208.14460083 -21.59943008 209.12261963 C-21.76556138 216.56068783 -21.91620146 223.99901828 -22.0625 231.4375 C-22.08471745 232.55060169 -22.10693489 233.66370338 -22.12982559 234.81053543 C-22.94681362 275.97628397 -23.19492973 317.13217276 -23.1876502 358.30454874 C-23.18750153 360.41574424 -23.18796889 362.52693862 -23.18867874 364.638134 C-23.19870967 394.80476223 -23.06690033 424.96603027 -22.5546875 455.12890625 C-22.53565557 456.29406706 -22.51662365 457.45922787 -22.497015 458.65969658 C-22.25144614 473.29162945 -21.76364278 487.88926505 -20.9375 502.5 C-20.84333899 504.17598813 -20.74920702 505.85197789 -20.65510559 507.52796936 C-20.61360791 508.26079164 -20.57211023 508.99361391 -20.52935505 509.74864292 C-19.71481247 524.49260723 -19.8043528 539.2391715 -20 554 C-20.33 554 -20.66 554 -21 554 C-21.3594435 545.61418639 -21.71605938 537.22825779 -22.06982994 528.84220314 C-22.23449892 524.94048625 -22.39985922 521.03880248 -22.56738281 517.13720703 C-22.94762733 508.26973998 -23.31303065 499.40181201 -23.66090584 490.53301239 C-23.85343079 485.63567613 -24.05228082 480.73870867 -24.26116943 475.84204102 C-26.07018578 433.19344155 -26.39864483 390.59383073 -26.37595081 347.91359043 C-26.3749921 345.22787181 -26.37530587 342.54215634 -26.37606049 339.85643768 C-26.39262852 279.355392 -25.28502186 219.02231214 -22.39992619 158.58202267 C-22.06718857 151.56451409 -21.76581286 144.54600719 -21.47583008 137.52661133 C-21.38912996 135.44806839 -21.30240939 133.36952631 -21.21566772 131.29098511 C-21.0921928 128.32867562 -20.96966041 125.3663494 -20.85100174 122.40384293 C-20.25050163 107.445598 -19.17327512 92.56508209 -17.83178711 77.65659142 C-17.22439487 70.89892021 -16.74825454 64.15626863 -16.5 57.375 C-16.15181779 47.97210766 -15.33660033 38.61957633 -14.5 29.25 C-14.43401611 28.50917175 -14.36803223 27.76834351 -14.30004883 27.00506592 C-13.88192491 22.33519313 -13.44598856 17.66729255 -13 13 C-12.91153809 12.03449219 -12.82307617 11.06898438 -12.73193359 10.07421875 C-12.01350939 2.78170098 -12.01350939 2.78170098 -9 0 C-5.41563853 -1.19478716 -3.63093708 -0.96330984 0 0 Z " fill="#BFCBE6" transform="translate(127,172)"/>
<path d="M0 0 C2.375 2.0625 2.375 2.0625 4 4 C3.67 4.66 3.34 5.32 3 6 C2.484375 5.67 1.96875 5.34 1.4375 5 C-1.78026512 3.67989123 -4.5570528 3.86757895 -8 4 C-9.86094772 11.3197277 -10.55761615 18.46783285 -11 26 C-11.66 26 -12.32 26 -13 26 C-12.98404785 26.77206787 -12.9680957 27.54413574 -12.95166016 28.33959961 C-12.84198696 38.1852612 -13.45016571 47.90709547 -14.16802979 57.72103882 C-15.56768108 76.93662895 -16.58783808 96.15185054 -17.35302734 115.40258789 C-17.38986633 116.30806366 -17.42670532 117.21353943 -17.46466064 118.14645386 C-17.53210548 119.8159571 -17.5969471 121.48556891 -17.65838623 123.15530396 C-17.81864343 127.14458238 -18.09026381 131.09320478 -18.50927734 135.06420898 C-18.97053993 139.45267552 -19.19273042 143.80091571 -19.28125 148.2109375 C-19.29965942 148.94518951 -19.31806885 149.67944153 -19.33703613 150.4359436 C-19.39489443 152.74889367 -19.44804773 155.06191027 -19.5 157.375 C-19.56881202 160.42459456 -19.64249269 163.47402104 -19.71875 166.5234375 C-19.73232544 167.19571381 -19.74590088 167.86799011 -19.7598877 168.56063843 C-19.86230527 172.65024628 -20.13311582 176.69794138 -20.49780273 180.77294922 C-21.02872604 186.88737887 -21.21703323 192.97453537 -21.31640625 199.109375 C-21.33718735 200.20219788 -21.35796844 201.29502075 -21.37937927 202.42095947 C-21.4440315 205.86391778 -21.50336168 209.30694303 -21.5625 212.75 C-21.60576571 215.1041732 -21.64938236 217.45833998 -21.69335938 219.8125 C-21.7996245 225.5415988 -21.90153684 231.27076208 -22 237 C-22.66 237 -23.32 237 -24 237 C-24 244.26 -24 251.52 -24 259 C-24.33 259 -24.66 259 -25 259 C-25.27874937 238.41337364 -24.47902624 217.86891924 -23.72912598 197.29994965 C-23.62399596 194.40989881 -23.52006675 191.51980711 -23.41650391 188.62969971 C-22.98291467 176.53715295 -22.5385002 164.4450346 -22.08747864 152.35312653 C-22.00669765 150.18016297 -21.92664203 148.00717472 -21.8470459 145.83416748 C-21.01345294 123.08628401 -19.87574847 100.43868938 -17.84085083 77.76461792 C-17.23228867 70.97073121 -16.74958162 64.19251911 -16.5 57.375 C-16.15181779 47.97210766 -15.33660033 38.61957633 -14.5 29.25 C-14.43401611 28.50917175 -14.36803223 27.76834351 -14.30004883 27.00506592 C-13.88192491 22.33519313 -13.44598856 17.66729255 -13 13 C-12.91153809 12.03449219 -12.82307617 11.06898438 -12.73193359 10.07421875 C-12.01350939 2.78170098 -12.01350939 2.78170098 -9 0 C-5.41563853 -1.19478716 -3.63093708 -0.96330984 0 0 Z " fill="#BBC6E3" transform="translate(127,172)"/>
<path d="M0 0 C4.5300389 4.1616069 7.78742991 8.83180933 11.1875 13.9375 C12.34656956 15.65437996 13.50673398 17.37052127 14.66796875 19.0859375 C15.23563965 19.92608398 15.80331055 20.76623047 16.38818359 21.63183594 C18.54912296 24.80679986 20.76047482 27.9426321 23 31.0625 C23.39348633 31.61107666 23.78697266 32.15965332 24.19238281 32.72485352 C26.49292657 35.92338418 28.80662562 39.11231816 31.12109375 42.30078125 C36.80807521 50.14116774 42.4312947 58.01163755 47.89282227 66.01098633 C52.7316999 73.09311075 57.67322403 80.10271352 62.64746094 87.09033203 C63.57010215 88.39302149 64.48449495 89.70158268 65.39160156 91.01513672 C67.68526138 94.55234708 67.68526138 94.55234708 71 97 C71.96484375 98.70703125 71.96484375 98.70703125 72.9375 100.8125 C74.37458452 103.81046284 75.85933085 106.43119701 78 109 C77.67 109.66 77.34 110.32 77 111 C70.48063781 102.738041 70.48063781 102.738041 69 98 C68.34 98 67.68 98 67 98 C65.4765625 95.97265625 65.4765625 95.97265625 63.625 93.0625 C60.34965033 88.02620965 56.98178098 83.08315497 53.5 78.1875 C49.29947847 72.27120557 45.13973783 66.32860879 41.00805664 60.36401367 C35.7731748 52.80704417 30.52963767 45.26634225 25.0625 37.875 C21.59220177 33.18251947 18.16096017 28.46797678 14.8125 23.6875 C13.70841797 22.11548828 13.70841797 22.11548828 12.58203125 20.51171875 C11 18 11 18 11 16 C10.34 16 9.68 16 9 16 C7.34375 13.76953125 7.34375 13.76953125 5.5 10.8125 C4.58734375 9.36810547 4.58734375 9.36810547 3.65625 7.89453125 C2.17379596 5.30373304 1.02309993 2.79817831 0 0 Z " fill="#C7D2EB" transform="translate(361,628)"/>
<path d="M0 0 C0.33 0 0.66 0 1 0 C3.91291372 47.47348862 3.91291372 47.47348862 5.05865479 69.02731323 C5.14281208 70.6015649 5.22863557 72.17572863 5.31634521 73.74978638 C5.94989589 85.1752721 6.0923588 96.5577711 6 108 C5.67 108 5.34 108 5 108 C2.64952214 91.24492485 2.15653796 74.36523577 1.47198486 57.48046875 C1.34307557 54.34965225 1.20642543 51.2191931 1.06985092 48.08870316 C0.37330959 32.05679377 -0.24709558 16.05122935 0 0 Z " fill="#BECAE5" transform="translate(194,506)"/>
<path d="M0 0 C3.35844945 3.14375405 6.0036842 6.61811119 8.625 10.375 C9.51158025 11.63160815 10.39830302 12.88811574 11.28515625 14.14453125 C11.7352002 14.78471191 12.18524414 15.42489258 12.64892578 16.08447266 C14.35766917 18.50709656 16.08568752 20.91555091 17.81469727 23.32373047 C22.25089787 29.50542108 26.60894639 35.73718361 30.9296875 42 C35.9434072 49.26516364 41.03608941 56.47491959 46.125 63.6875 C46.62813721 64.40067383 47.13127441 65.11384766 47.6496582 65.84863281 C48.62595422 67.23135724 49.60370011 68.61305929 50.58300781 69.99365234 C51.5323385 71.33782871 52.47435147 72.68720148 53.40917969 74.04150391 C55.6957287 77.56405684 55.6957287 77.56405684 59 80 C59 80.66 59 81.32 59 82 C59.66 82 60.32 82 61 82 C61 83.65 61 85.3 61 87 C56.15947865 82.58199095 52.63611767 77.44765595 48.9375 72.0625 C48.32583984 71.18142578 47.71417969 70.30035156 47.08398438 69.39257812 C45.38063535 66.93423115 43.68945569 64.46790448 42 62 C41.56316895 61.37464355 41.12633789 60.74928711 40.67626953 60.10498047 C38 56.22539045 38 56.22539045 38 54 C37.34 54 36.68 54 36 54 C34.78514615 52.27578573 33.65181296 50.49365116 32.5625 48.6875 C30.5716837 45.39813829 28.71047873 42.69602284 26 40 C24.98696266 38.34122541 23.98973118 36.67278509 23 35 C21.16466137 32.30522167 19.26748656 29.65484571 17.375 27 C16.3017769 25.48459197 15.22886351 23.96896456 14.15625 22.453125 C12.63665643 20.30835883 11.11654804 18.16397662 9.59375 16.02148438 C8.3492631 14.26772085 7.1113239 12.50952335 5.875 10.75 C4.81925781 9.25726563 4.81925781 9.25726563 3.7421875 7.734375 C2.12804834 5.20097273 0.99970853 2.82391893 0 0 Z " fill="#C9D4EB" transform="translate(266,493)"/>
<path d="M0 0 C0.33 0 0.66 0 1 0 C1.42371728 17.58426713 0.1502804 35.11890902 -1.53125 52.6171875 C-2.07600212 58.4666982 -2.33285269 64.31831712 -2.5625 70.1875 C-2.60568359 71.23486328 -2.64886719 72.28222656 -2.69335938 73.36132812 C-2.79799509 75.90746397 -2.90017546 78.45367178 -3 81 C-3.33 81 -3.66 81 -4 81 C-4.28885407 66.07587304 -3.87174616 51.19753086 -3.25335693 36.28741455 C-3.16830219 34.23327968 -3.08579174 32.17903777 -3.00592041 30.12469482 C-2.16836068 8.86101256 -2.16836068 8.86101256 0 0 Z " fill="#C2CDE6" transform="translate(109,265)"/>
<path d="M0 0 C3.23648618 3.87051309 5.92834063 7.90155403 8.5625 12.1875 C9.43609729 13.6081348 10.30979937 15.02870516 11.18359375 16.44921875 C11.63847168 17.18962402 12.09334961 17.9300293 12.56201172 18.69287109 C14.04469682 21.07171221 15.56685485 23.4214092 17.09765625 25.76953125 C18.10691282 27.34626329 19.11603066 28.92308414 20.125 30.5 C20.8531189 31.59284302 20.8531189 31.59284302 21.59594727 32.70776367 C24.76644126 37.72651742 25.72548577 41.05486878 25 47 C22.10425444 50.14395232 19.0111667 51.62474285 15 53 C17.57784846 50.35247996 19.91648098 48.05567935 23 46 C23.36297936 44.02252878 23.36297936 44.02252878 23.1875 41.875 C23.125625 40.59625 23.06375 39.3175 23 38 C21.515 37.505 21.515 37.505 20 37 C18.60546875 35.08227539 18.60546875 35.08227539 17.1875 32.59765625 C16.66929687 31.70755859 16.15109375 30.81746094 15.6171875 29.90039062 C15.08351563 28.96388672 14.54984375 28.02738281 14 27.0625 C12.94368453 25.21649941 11.8814325 23.37387969 10.8125 21.53515625 C10.34457031 20.714104 9.87664063 19.89305176 9.39453125 19.04711914 C8.00517561 16.7323567 8.00517561 16.7323567 5 15 C4.63557767 13.33985384 4.30027117 11.67293936 4 10 C3.34 9.67 2.68 9.34 2 9 C2 7.35 2 5.7 2 4 C1.34 4 0.68 4 0 4 C0 2.68 0 1.36 0 0 Z " fill="#B1B4C7" transform="translate(601,578)"/>
<path d="M0 0 C2.42233065 2.06610555 3.79208367 3.92451463 5.125 6.8125 C4.795 7.4725 4.465 8.1325 4.125 8.8125 C2.08609245 6.77359245 0.0975399 4.77954788 -1.75 2.5625 C-4.62335606 0.19620678 -6.21162103 0.53998035 -9.875 0.8125 C-12.57391108 1.62318133 -12.57391108 1.62318133 -15.25 2.875 C-16.796875 3.54982422 -16.796875 3.54982422 -18.375 4.23828125 C-20.21368304 5.0652782 -22.0523289 5.89235814 -23.890625 6.72021484 C-25.30444981 7.35545419 -26.71934115 7.98832477 -28.13525391 8.61889648 C-29.515776 9.23488793 -30.89323548 9.85780286 -32.26708984 10.48852539 C-36.13201678 12.22002431 -39.66713229 13.31745674 -43.875 13.8125 C-39.17013265 9.96811407 -33.63169888 7.84978325 -28.10473633 5.45922852 C-26.203865 4.63212075 -24.31422716 3.78235715 -22.42382812 2.93164062 C-14.8823814 -0.38512929 -8.07728284 -3.336269 0 0 Z " fill="#C6D1E8" transform="translate(543.875,753.1875)"/>
<path d="M0 0 C-2.74486481 2.74486481 -6.02831536 3.83942518 -9.5625 5.29296875 C-10.30959229 5.60325516 -11.05668457 5.91354156 -11.82641602 6.23323059 C-13.40567402 6.88714855 -14.98602803 7.5384249 -16.56738281 8.18725586 C-18.99423358 9.18512896 -21.4151334 10.19654528 -23.8359375 11.20898438 C-25.36944842 11.84197804 -26.90329172 12.47416719 -28.4375 13.10546875 C-29.52816772 13.56314888 -29.52816772 13.56314888 -30.64086914 14.03007507 C-32.40410417 14.74654077 -34.20011148 15.38135457 -36 16 C-36.66 15.67 -37.32 15.34 -38 15 C-33.38839647 11.51013787 -28.7833166 9.72275657 -23.29296875 7.9296875 C-20.83905159 7.22881209 -20.83905159 7.22881209 -20 5 C-18 4.66666667 -16 4.33333333 -14 4 C-13.67 3.34 -13.34 2.68 -13 2 C-8.64115911 -0.37754958 -4.83456559 -0.16388358 0 0 Z " fill="#9194A9" transform="translate(341,746)"/>
<path d="M0 0 C-1.11117187 0.51949219 -2.22234375 1.03898438 -3.3671875 1.57421875 C-4.86992457 2.27836227 -6.37251895 2.98281037 -7.875 3.6875 C-8.66148926 4.05617188 -9.44797852 4.42484375 -10.25830078 4.8046875 C-14.16502939 6.64238942 -18.04348695 8.50898161 -21.875 10.5 C-26.80881323 12.98835798 -31.86494713 15.18769178 -36.9375 17.375 C-38.20086182 17.9309082 -38.20086182 17.9309082 -39.48974609 18.49804688 C-40.28590332 18.83642578 -41.08206055 19.17480469 -41.90234375 19.5234375 C-42.61898193 19.83200684 -43.33562012 20.14057617 -44.07397461 20.45849609 C-46 21 -46 21 -49 20 C-48.21753906 19.66226563 -47.43507813 19.32453125 -46.62890625 18.9765625 C-45.61699219 18.53054688 -44.60507812 18.08453125 -43.5625 17.625 C-42.55316406 17.18414063 -41.54382813 16.74328125 -40.50390625 16.2890625 C-37.87856453 15.24923714 -37.87856453 15.24923714 -37 13 C-35.09677427 12.52419357 -33.19212814 12.05345231 -31.28125 11.609375 C-25.87700024 10.16577404 -20.94907521 7.50454996 -16.01171875 4.92578125 C-15.30080078 4.55855957 -14.58988281 4.19133789 -13.85742188 3.81298828 C-12.42714269 3.07113555 -11.00244111 2.31841418 -9.58398438 1.55419922 C-5.90932055 -0.3518764 -3.95248631 -1.32256482 0 0 Z " fill="#B4B6C9" transform="translate(585,649)"/>
<path d="M0 0 C-0.99 0.33 -1.98 0.66 -3 1 C-3 1.99 -3 2.98 -3 4 C-5.64 4.66 -8.28 5.32 -11 6 C-11.47274258 11.85757604 -10.40880752 14.69712704 -7 19.4375 C-6.2575 20.48808594 -5.515 21.53867187 -4.75 22.62109375 C-3.88375 23.79865234 -3.88375 23.79865234 -3 25 C-3.33 25.66 -3.66 26.32 -4 27 C-5.68485519 24.80367091 -7.34713211 22.59520363 -9 20.375 C-9.47695313 19.75753906 -9.95390625 19.14007812 -10.4453125 18.50390625 C-12.70573614 15.43618845 -13.9256816 13.54956501 -14.4453125 9.70703125 C-13.80052672 5.78741243 -12.05220776 4.45503668 -9 2 C-3.64285714 -1.21428571 -3.64285714 -1.21428571 0 0 Z " fill="#C9D4EB" transform="translate(488,773)"/>
<path d="M0 0 C4.15235422 3.88859306 7.34277665 8.0723799 10.5625 12.75 C11.61052517 14.25401212 12.65870723 15.75791492 13.70703125 17.26171875 C14.24408691 18.03563965 14.78114258 18.80956055 15.33447266 19.60693359 C18.11848071 23.60705774 20.93577477 27.58360743 23.75 31.5625 C24.76577789 33.00119415 25.78141727 34.43998611 26.796875 35.87890625 C27.88742188 37.42384766 27.88742188 37.42384766 29 39 C28.67 39.66 28.34 40.32 28 41 C23.13479792 34.57925713 18.34429853 28.13545787 13.7578125 21.51171875 C11.81164665 18.73086399 9.8163331 15.9895578 7.8125 13.25 C0 2.52487864 0 2.52487864 0 0 Z " fill="#C8D4EB" transform="translate(225,435)"/>
<path d="M0 0 C-4.06189059 1.79305054 -8.12461769 3.58419788 -12.1875 5.375 C-13.33798828 5.88289062 -14.48847656 6.39078125 -15.67382812 6.9140625 C-16.78564453 7.40390625 -17.89746094 7.89375 -19.04296875 8.3984375 C-20.06414795 8.84880371 -21.08532715 9.29916992 -22.13745117 9.76318359 C-23.55441284 10.37540771 -23.55441284 10.37540771 -25 11 C-25.89243408 11.39010254 -26.78486816 11.78020508 -27.7043457 12.18212891 C-30.5446989 13.19405948 -32.1430817 12.84935409 -35 12 C-35.66 11.67 -36.32 11.34 -37 11 C-36.67 10.34 -36.34 9.68 -36 9 C-34.906875 9.0825 -33.81375 9.165 -32.6875 9.25 C-25.29403556 9.26315563 -18.07451343 6.05322175 -12 2 C-11.67 1.34 -11.34 0.68 -11 0 C-3.82105263 -1.27368421 -3.82105263 -1.27368421 0 0 Z " fill="#C5D0E7" transform="translate(491,751)"/>
<path d="M0 0 C0.66 0 1.32 0 2 0 C2.66302156 14.43913629 0.69031195 28.68479608 -1 43 C-1.33 43 -1.66 43 -2 43 C-2.44023869 28.6188694 -1.12772455 14.32600086 0 0 Z " fill="#7085B6" transform="translate(114,198)"/>
<path d="M0 0 C-6.04347032 2.60658586 -12.09262339 5.19954355 -18.14697266 7.78076172 C-19.97101061 8.56026245 -21.79373809 9.34284149 -23.61474609 10.12939453 C-25.94781639 11.13682512 -28.28561026 12.13235188 -30.625 13.125 C-31.67965454 13.58531616 -31.67965454 13.58531616 -32.75561523 14.05493164 C-37.65781456 16.11406181 -37.65781456 16.11406181 -41 15 C-36.47670629 11.96597068 -31.66037154 10.29740198 -26.5625 8.5 C-21.19345475 6.59820362 -16.06091582 4.64176838 -11 2 C-9.6159718 1.38918545 -8.22134546 0.80116509 -6.8125 0.25 C-6.15894531 -0.01296875 -5.50539062 -0.2759375 -4.83203125 -0.546875 C-3 -1 -3 -1 0 0 Z " fill="#C5C7D8" transform="translate(201,804)"/>
<path d="M0 0 C0.33 1.32 0.66 2.64 1 4 C0.01 4.33 -0.98 4.66 -2 5 C-2.2165625 6.60875 -2.2165625 6.60875 -2.4375 8.25 C-3 12 -3 12 -3.6484375 13.953125 C-4.11676928 16.6798567 -3.38375345 18.03140631 -2.1875 20.5 C-1.83042969 21.2528125 -1.47335938 22.005625 -1.10546875 22.78125 C0.44392298 25.89229664 0.44392298 25.89229664 2 29 C-2.04458972 26.11100734 -6.05887158 22.67719515 -8 18 C-7.71287157 13.42467088 -6.24833332 10.13829725 -4 6.1875 C-3.46375 5.23230469 -2.9275 4.27710937 -2.375 3.29296875 C-1 1 -1 1 0 0 Z " fill="#8C90A6" transform="translate(136,84)"/>
<path d="M0 0 C5.17964725 4.69405532 8.96512804 10.32432983 13 16 C14.37242138 17.89770086 15.74736473 19.79358076 17.125 21.6875 C17.77726562 22.5846875 18.42953125 23.481875 19.1015625 24.40625 C21.70337168 27.96098518 24.34245107 31.48680085 27 35 C26.67 35.66 26.34 36.32 26 37 C20.08236033 30.36069696 14.06694147 23.44912308 11 15 C10.34 15 9.68 15 9 15 C7.57191082 13.11632409 6.23078609 11.1661573 4.9375 9.1875 C4.22464844 8.10855469 3.51179688 7.02960938 2.77734375 5.91796875 C1 3 1 3 0 0 Z " fill="#C4C6D7" transform="translate(406,436)"/>
<path d="M0 0 C2.375 2.0625 2.375 2.0625 4 4 C3.67 4.66 3.34 5.32 3 6 C2.484375 5.67 1.96875 5.34 1.4375 5 C-1.78026512 3.67989123 -4.5570528 3.86757895 -8 4 C-8.66 6.97 -9.32 9.94 -10 13 C-10.33 13 -10.66 13 -11 13 C-11.28331319 9.29174517 -11.43052405 5.70032697 -11 2 C-7.60352227 -1.59627054 -4.56445403 -1.45674065 0 0 Z " fill="#95A6CA" transform="translate(127,172)"/>
<path d="M0 0 C-3.9279389 1.59694874 -7.8605913 3.18147123 -11.7980957 4.75463867 C-13.13702782 5.29160708 -14.47460981 5.83195483 -15.81079102 6.37573242 C-17.7310897 7.15654455 -19.65590761 7.92509562 -21.58203125 8.69140625 C-22.73936768 9.15748291 -23.8967041 9.62355957 -25.08911133 10.10375977 C-28 11 -28 11 -31 10 C-27.88145326 5.74743627 -24.8287301 5.42617437 -19.93359375 4.640625 C-15.36019539 3.64190685 -11.17622496 1.76212031 -6.8828125 -0.07421875 C-3.84611998 -1.04941676 -2.92601138 -0.89695949 0 0 Z " fill="#C5D1E9" transform="translate(194,707)"/>
<path d="M0 0 C1.57499749 3.14999498 0.70833498 5.63540882 0 9 C-1.4375 10.625 -1.4375 10.625 -3 12 C-4.19027984 14.59915538 -4.19027984 14.59915538 -5 17 C-5.66 17 -6.32 17 -7 17 C-7.309375 17.78375 -7.61875 18.5675 -7.9375 19.375 C-9 22 -9 22 -10 24 C-10.66 24 -11.32 24 -12 24 C-10.42195846 18.39523177 -7.73583615 13.64949374 -4.875 8.625 C-4.17310547 7.37783203 -4.17310547 7.37783203 -3.45703125 6.10546875 C-2.30929451 4.06765046 -1.15686718 2.03264431 0 0 Z " fill="#9A9EB3" transform="translate(159,42)"/>
<path d="M0 0 C2.64 0 5.28 0 8 0 C3.52214481 3.54719913 -1.43109968 5.79690653 -6.5625 8.25 C-7.52091797 8.72179687 -8.47933594 9.19359375 -9.46679688 9.6796875 C-10.38654297 10.12054687 -11.30628906 10.56140625 -12.25390625 11.015625 C-13.09252197 11.42071289 -13.9311377 11.82580078 -14.79516602 12.24316406 C-17 13 -17 13 -20 12 C-18.04414675 10.99515796 -16.08523763 9.99626195 -14.125 9 C-13.03445313 8.443125 -11.94390625 7.88625 -10.8203125 7.3125 C-8 6 -8 6 -6 6 C-6 5.01 -6 4.02 -6 3 C-4.02 3 -2.04 3 0 3 C0 2.01 0 1.02 0 0 Z " fill="#ACBBDB" transform="translate(544,803)"/>
<path d="M0 0 C0.66 0 1.32 0 2 0 C3.66264064 2.26213629 5.18907401 4.50808909 6.6875 6.875 C7.11611328 7.52597656 7.54472656 8.17695312 7.98632812 8.84765625 C9.05910893 10.52333642 10.03745881 12.25865651 11 14 C10.67 14.66 10.34 15.32 10 16 C8.02 15.01 6.04 14.02 4 13 C4 11.68 4 10.36 4 9 C3.01 8.67 2.02 8.34 1 8 C0.67 5.36 0.34 2.72 0 0 Z " fill="#9CABD1" transform="translate(549,762)"/>
<path d="M0 0 C-1.60032137 0.84069415 -3.20541171 1.67231505 -4.8125 2.5 C-5.70582031 2.9640625 -6.59914062 3.428125 -7.51953125 3.90625 C-10 5 -10 5 -13 5 C-13.24105469 5.64582031 -13.48210937 6.29164063 -13.73046875 6.95703125 C-15 9 -15 9 -16.98828125 9.57421875 C-17.75527344 9.61160156 -18.52226562 9.64898438 -19.3125 9.6875 C-20.51132813 9.76871094 -20.51132813 9.76871094 -21.734375 9.8515625 C-22.48203125 9.90054688 -23.2296875 9.94953125 -24 10 C-25.67170873 10.30704854 -27.3420691 10.62562851 -29 11 C-24.31851303 7.18728502 -18.9537191 5.41192415 -13.375 3.25 C-12.3128125 2.82589844 -11.250625 2.40179687 -10.15625 1.96484375 C-9.14304688 1.56910156 -8.12984375 1.17335938 -7.0859375 0.765625 C-6.1582959 0.40243164 -5.2306543 0.03923828 -4.27490234 -0.33496094 C-2 -1 -2 -1 0 0 Z " fill="#A0A1B7" transform="translate(221,714)"/>
<path d="M0 0 C0.99 0.33 1.98 0.66 3 1 C-3.57268393 5.08259222 -10.18871321 7.97303778 -17.5 10.4375 C-18.28938965 10.70836426 -19.0787793 10.97922852 -19.89208984 11.25830078 C-25.62285944 13.12571352 -25.62285944 13.12571352 -29 12 C-28.19256348 11.67201416 -27.38512695 11.34402832 -26.55322266 11.00610352 C-23.55996174 9.78978131 -20.56699203 8.57274609 -17.57421875 7.35522461 C-16.27843688 6.82824518 -14.98253905 6.30155081 -13.68652344 5.77514648 C-11.82456547 5.01881517 -9.96305751 4.26137629 -8.1015625 3.50390625 C-6.42054443 2.82050171 -6.42054443 2.82050171 -4.70556641 2.12329102 C-3.1162865 1.46345734 -1.53914031 0.76957015 0 0 Z " fill="#B7B9CC" transform="translate(279,688)"/>
<path d="M0 0 C-6.91933122 3.25360402 -13.82364502 6.43154662 -20.9765625 9.140625 C-23.24824881 10.03167135 -23.24824881 10.03167135 -26 12 C-28.26171875 12.4140625 -28.26171875 12.4140625 -30.6875 12.625 C-31.49574219 12.69976563 -32.30398438 12.77453125 -33.13671875 12.8515625 C-34.05904297 12.92503906 -34.05904297 12.92503906 -35 13 C-32.40187141 10.40187141 -29.45867304 9.44321101 -26.09375 8.14453125 C-25.41324585 7.87863693 -24.7327417 7.61274261 -24.03161621 7.33879089 C-22.59358124 6.77889668 -21.15446266 6.22177883 -19.71435547 5.66723633 C-17.50493597 4.81440527 -15.301263 3.94780053 -13.09765625 3.08007812 C-11.70084835 2.53821748 -10.30372322 1.99717372 -8.90625 1.45703125 C-8.24475952 1.19565872 -7.58326904 0.93428619 -6.9017334 0.66499329 C-2.22924739 -1.11462369 -2.22924739 -1.11462369 0 0 Z " fill="#BCBDCF" transform="translate(317,675)"/>
<path d="M0 0 C0.66 0 1.32 0 2 0 C3.43581474 1.61457079 4.80144783 3.29219075 6.125 5 C6.84945312 5.928125 7.57390625 6.85625 8.3203125 7.8125 C8.87460938 8.534375 9.42890625 9.25625 10 10 C11.32 9.67 12.64 9.34 14 9 C14.26554688 9.67546875 14.53109375 10.3509375 14.8046875 11.046875 C15.15789062 11.93890625 15.51109375 12.8309375 15.875 13.75 C16.22304687 14.63171875 16.57109375 15.5134375 16.9296875 16.421875 C17.8646709 18.6740248 18.87780794 20.83649459 20 23 C16.29430504 20.21910062 13.43919961 17.3128594 10.5625 13.6875 C7.90439307 10.36708883 5.23603902 7.07806717 2.4375 3.875 C0 1 0 1 0 0 Z " fill="#BFC2D1" transform="translate(190,173)"/>
<path d="M0 0 C-14.98145916 7.78017044 -14.98145916 7.78017044 -22 6 C-25.0625 4 -25.0625 4 -27 2 C-26.67 1.34 -26.34 0.68 -26 0 C-25.360625 0.495 -24.72125 0.99 -24.0625 1.5 C-19.92587425 3.52610241 -16.53164497 3.7250632 -12 3 C-9.80865062 2.07407773 -7.84246908 1.03399018 -5.82421875 -0.22265625 C-3.50732718 -1.20993981 -2.33020766 -0.81788746 0 0 Z " fill="#CBD4EB" transform="translate(524,817)"/>
<path d="M0 0 C-3.93387538 1.67531673 -7.87266263 3.33875803 -11.8125 5 C-13.49182617 5.71542969 -13.49182617 5.71542969 -15.20507812 6.4453125 C-16.27822266 6.89648438 -17.35136719 7.34765625 -18.45703125 7.8125 C-19.44678955 8.23144531 -20.43654785 8.65039062 -21.45629883 9.08203125 C-24 10 -24 10 -27 10 C-27 9.01 -27 8.02 -27 7 C-25.53820312 6.60361328 -25.53820312 6.60361328 -24.046875 6.19921875 C-18.91899444 4.7365076 -13.94911561 2.83447283 -8.96484375 0.94726562 C-3.32928744 -1.10976248 -3.32928744 -1.10976248 0 0 Z " fill="#AEB0C3" transform="translate(265,778)"/>
<path d="M0 0 C-2.931458 1.20282097 -5.87097242 2.38454273 -8.8125 3.5625 C-9.64587891 3.90474609 -10.47925781 4.24699219 -11.33789062 4.59960938 C-12.54155273 5.07817383 -12.54155273 5.07817383 -13.76953125 5.56640625 C-14.50792236 5.86490479 -15.24631348 6.16340332 -16.00708008 6.47094727 C-18 7 -18 7 -21 6 C-19.24741859 2.89927905 -18.22251279 2.07489191 -14.78515625 0.91796875 C-13.55667969 0.67691406 -12.32820312 0.43585937 -11.0625 0.1875 C-9.22365234 -0.19341797 -9.22365234 -0.19341797 -7.34765625 -0.58203125 C-4.30098136 -0.96242123 -2.84056165 -0.83454811 0 0 Z " fill="#A3B3D5" transform="translate(163,719)"/>
<path d="M0 0 C0.99 0.33 1.98 0.66 3 1 C-1.92200603 4.34952099 -6.18809141 6.49692019 -12 8 C-14.57352252 9.06132867 -17.12528803 10.15977404 -19.66796875 11.29296875 C-22.29685137 12.09000017 -23.42450881 11.75586173 -26 11 C-24.92516357 10.55346069 -24.92516357 10.55346069 -23.82861328 10.09790039 C-20.59376825 8.75350489 -17.35937898 7.40801634 -14.125 6.0625 C-12.43310547 5.35963867 -12.43310547 5.35963867 -10.70703125 4.64257812 C-9.63066406 4.19462891 -8.55429688 3.74667969 -7.4453125 3.28515625 C-5.95281982 2.66459351 -5.95281982 2.66459351 -4.43017578 2.03149414 C-2.93472734 1.39674734 -1.4530711 0.72653555 0 0 Z " fill="#BCBFCE" transform="translate(247,701)"/>
<path d="M0 0 C6.36461461 5.59314617 11.08369093 13.0699379 14 21 C10.03578848 18.11000663 7.45007932 15.14868874 4.75 11.0625 C4.06421875 10.04285156 3.3784375 9.02320313 2.671875 7.97265625 C1.10794676 5.19193338 0.3928869 3.13731748 0 0 Z " fill="#AEB0C2" transform="translate(545,491)"/>
<path d="M0 0 C0.66 0 1.32 0 2 0 C3.39767242 1.95557909 4.71990161 3.96551582 6 6 C10.24269366 12.401997 14.4821721 18.78798664 19 25 C18.67 25.66 18.34 26.32 18 27 C0 2.88065099 0 2.88065099 0 0 Z " fill="#C8D3EB" transform="translate(206,408)"/>
<path d="M0 0 C0.99 0.33 1.98 0.66 3 1 C1.27149655 1.79311367 -0.45783354 2.5844259 -2.1875 3.375 C-3.63189453 4.03628906 -3.63189453 4.03628906 -5.10546875 4.7109375 C-6.06066406 5.13632812 -7.01585937 5.56171875 -8 6 C-9.32451172 6.60714844 -9.32451172 6.60714844 -10.67578125 7.2265625 C-13 8 -13 8 -16 7 C-14.75 5 -14.75 5 -13 3 C-11.68 3 -10.36 3 -9 3 C-8.67 2.34 -8.34 1.68 -8 1 C-7.05125 1.020625 -6.1025 1.04125 -5.125 1.0625 C-2.09333717 1.22551826 -2.09333717 1.22551826 0 0 Z " fill="#9092A8" transform="translate(374,731)"/>
<path d="M0 0 C2.58479229 3.08186773 4.9892807 6.28074966 7.3125 9.5625 C7.84488281 10.30628906 8.37726562 11.05007813 8.92578125 11.81640625 C10 14 10 14 9.66796875 16.27734375 C9.44753906 16.84582031 9.22710938 17.41429687 9 18 C7.0625 16.8125 7.0625 16.8125 5 15 C4.375 12.375 4.375 12.375 4 10 C3.34 9.67 2.68 9.34 2 9 C2 7.35 2 5.7 2 4 C1.34 4 0.68 4 0 4 C0 2.68 0 1.36 0 0 Z " fill="#A7A7BC" transform="translate(601,578)"/>
<path d="M0 0 C2.09910705 2.03119476 3.98622598 4.10828078 5.75 6.4375 C6.19859375 7.01371094 6.6471875 7.58992187 7.109375 8.18359375 C8 10 8 10 7.640625 12.22265625 C7.42921875 12.80917969 7.2178125 13.39570312 7 14 C5.68 13.34 4.36 12.68 3 12 C3 10.35 3 8.7 3 7 C2.01 6.67 1.02 6.34 0 6 C0 4.02 0 2.04 0 0 Z " fill="#81849D" transform="translate(382,685)"/>
<path d="M0 0 C0.99 0.9590625 0.99 0.9590625 2 1.9375 C5.85690912 4.58912502 8.37840033 4.68667121 13 5 C13 4.34 13 3.68 13 3 C15.64 3 18.28 3 21 3 C17.70485139 6.29514861 14.0362878 6.87046402 9.5 7.4375 C4.79571911 6.84946489 3.27865148 5.35861859 0 2 C0 1.34 0 0.68 0 0 Z " fill="#A6A8BB" transform="translate(513,668)"/>
<path d="M0 0 C3.07880294 1.53940147 3.62347035 3.90280828 5 7 C6.12577379 10.49582387 7 13.32725539 7 17 C3.02795856 12.19108191 0.11704752 8.20581955 -1 2 C-0.67 1.34 -0.34 0.68 0 0 Z " fill="#899DC6" transform="translate(253,469)"/>
<path d="M0 0 C4.69564393 3.31457218 7.72469104 7.36279281 11 12 C10.67 12.66 10.34 13.32 10 14 C9.01 13.34 8.02 12.68 7 12 C6.67 12.66 6.34 13.32 6 14 C5.34 14 4.68 14 4 14 C4.2475 13.443125 4.495 12.88625 4.75 12.3125 C5.29145046 9.7977015 5.29145046 9.7977015 3.125 7.5625 C2.42375 6.716875 1.7225 5.87125 1 5 C0.25 2.1875 0.25 2.1875 0 0 Z " fill="#A7AABD" transform="translate(426,326)"/>
<path d="M0 0 C0.91007813 0.00902344 1.82015625 0.01804687 2.7578125 0.02734375 C3.80582031 0.04474609 3.80582031 0.04474609 4.875 0.0625 C1.5891754 2.81417577 -1.76127487 4.28183799 -5.75 5.8125 C-6.89726562 6.26109375 -8.04453125 6.7096875 -9.2265625 7.171875 C-12.125 8.0625 -12.125 8.0625 -14.125 7.0625 C-9.375 4.0625 -9.375 4.0625 -7.125 4.0625 C-7.125 3.0725 -7.125 2.0825 -7.125 1.0625 C-4.60024538 -0.19987731 -2.81299534 -0.03606404 0 0 Z " fill="#9E9FB5" transform="translate(228.125,789.9375)"/>
<path d="M0 0 C4.15050444 3.90635712 8.02455804 8.11250427 11 13 C11 13.99 11 14.98 11 16 C6.125 12.25 6.125 12.25 5 10 C4.34 10 3.68 10 3 10 C3 8.68 3 7.36 3 6 C2.34 6 1.68 6 1 6 C0.67 4.02 0.34 2.04 0 0 Z " fill="#A1B0D4" transform="translate(196,261)"/>
<path d="M0 0 C-0.33 0.99 -0.66 1.98 -1 3 C-1.94875 2.938125 -2.8975 2.87625 -3.875 2.8125 C-5.421875 2.9053125 -5.421875 2.9053125 -7 3 C-7.99 4.485 -7.99 4.485 -9 6 C-10.5 7.6875 -10.5 7.6875 -12 9 C-12.66 9 -13.32 9 -14 9 C-13.17880498 5.92051868 -12.48027612 3.55416475 -10.375 1.125 C-6.83707969 -0.55085699 -3.89178756 -0.19458938 0 0 Z " fill="#44476B" transform="translate(172,39)"/>
<path d="M0 0 C3.2626876 3.08632611 6.02235218 5.93483504 8 10 C7.67 10.66 7.34 11.32 7 12 C5.35 11.67 3.7 11.34 2 11 C1.34 7.37 0.68 3.74 0 0 Z " fill="#7E809A" transform="translate(521,456)"/>
<path d="M0 0 C3.91939465 3.80411834 7.49102731 7.81576108 11 12 C10.67 12.66 10.34 13.32 10 14 C6.71968376 12.88171037 4.53791053 11.88999743 2.7109375 8.8671875 C0 2.80170863 0 2.80170863 0 0 Z " fill="#A3B1D7" transform="translate(142,192)"/>
<path d="M0 0 C0.33 0 0.66 0 1 0 C1.28875 1.134375 1.5775 2.26875 1.875 3.4375 C2.24625 4.613125 2.6175 5.78875 3 7 C5.78915389 8.39457694 7.90273264 8.1821922 11 8 C12.66933058 7.3400321 14.3364521 6.67441131 16 6 C16.99 6.33 17.98 6.66 19 7 C8.36085627 11.98776758 8.36085627 11.98776758 2 10 C-0.4294516 6.3558226 -0.16179575 4.28758728 0 0 Z " fill="#C9D2EA" transform="translate(107,726)"/>
<path d="M0 0 C-2.81983961 4.22975941 -6.1874853 4.83919243 -11 6 C-14.5625 6.1875 -14.5625 6.1875 -17 6 C-14.42166561 3.42166561 -11.89674219 2.6238529 -8.5 1.3125 C-7.3346875 0.85488281 -6.169375 0.39726563 -4.96875 -0.07421875 C-2 -1 -2 -1 0 0 Z " fill="#969AB0" transform="translate(334,668)"/>
<path d="M0 0 C5.13276895 2.56638448 7.02540204 3.5698556 9 9 C11.20758497 11.78280077 13.58436005 14.39705107 16 17 C15.67 17.66 15.34 18.32 15 19 C13.49405319 17.38050958 11.99539332 15.75424026 10.5 14.125 C9.6646875 13.22007812 8.829375 12.31515625 7.96875 11.3828125 C6 9 6 9 6 7 C5.34 7 4.68 7 4 7 C0 2.52941176 0 2.52941176 0 0 Z " fill="#C2C6D7" transform="translate(174,154)"/>
<path d="M0 0 C4.85110358 4.41009417 8.348107 9.58004353 12 15 C11.67 15.66 11.34 16.32 11 17 C7.28316395 13.58452904 5.20197137 10.50403235 3 6 C2.01 5.34 1.02 4.68 0 4 C0 2.68 0 1.36 0 0 Z " fill="#BECBE6" transform="translate(418,561)"/>
<path d="M0 0 C2.97 0.495 2.97 0.495 6 1 C-3.42857143 9 -3.42857143 9 -8 9 C-8 8.34 -8 7.68 -8 7 C-7.236875 6.54625 -6.47375 6.0925 -5.6875 5.625 C-2.99130956 3.99474531 -1.70517864 2.60264108 0 0 Z " fill="#9D9FB3" transform="translate(610,630)"/>
<path d="M0 0 C3.59476701 3.49205938 6.92026191 7.04033675 10 11 C10 11.66 10 12.32 10 13 C9.01 13 8.02 13 7 13 C6.67 11.68 6.34 10.36 6 9 C4.35 8.67 2.7 8.34 1 8 C1.020625 7.236875 1.04125 6.47375 1.0625 5.6875 C1.12942841 2.89814214 1.12942841 2.89814214 0 0 Z " fill="#9A9CB1" transform="translate(416,313)"/>
<path d="M0 0 C-3.11963179 1.36678479 -6.24646237 2.71623991 -9.375 4.0625 C-10.26445312 4.45244141 -11.15390625 4.84238281 -12.0703125 5.24414062 C-12.92109375 5.60830078 -13.771875 5.97246094 -14.6484375 6.34765625 C-15.43395996 6.68804932 -16.21948242 7.02844238 -17.02880859 7.37915039 C-19 8 -19 8 -21 7 C-15.18682866 2.60084331 -7.35480821 -2.15955922 0 0 Z " fill="#C1C1D3" transform="translate(324,754)"/>
<path d="M0 0 C5.83971434 5.32444542 10.24098116 11.57287818 13 19 C9.56401679 15.80043765 6.89239164 12.23099822 4.25 8.375 C3.83878906 7.78976562 3.42757813 7.20453125 3.00390625 6.6015625 C0 2.25038933 0 2.25038933 0 0 Z " fill="#C1C2D5" transform="translate(473,531)"/>
<path d="M0 0 C3.34865457 1.11621819 3.71566145 1.67474229 5.5625 4.5 C7.31619395 7.25536594 7.31619395 7.25536594 10 9 C10 9.66 10 10.32 10 11 C10.66 11 11.32 11 12 11 C12 12.65 12 14.3 12 16 C6.8288885 11.45568989 3.55336892 5.84718632 0 0 Z " fill="#B9C5E0" transform="translate(315,564)"/>
<path d="M0 0 C3.26008643 3.16952847 6.22237877 6.39937989 9 10 C8.67 10.66 8.34 11.32 8 12 C7.1028125 11.2884375 7.1028125 11.2884375 6.1875 10.5625 C3.99617076 8.83534256 3.99617076 8.83534256 1 8 C0.67 5.36 0.34 2.72 0 0 Z " fill="#9EB1D1" transform="translate(295,392)"/>
<path d="M0 0 C-2.26607052 1.03275341 -4.53681939 2.05133551 -6.8125 3.0625 C-7.77639648 3.50432617 -7.77639648 3.50432617 -8.75976562 3.95507812 C-13.66015625 6.11328125 -13.66015625 6.11328125 -17 5 C-15.68 4.67 -14.36 4.34 -13 4 C-13 3.01 -13 2.02 -13 1 C-11.58622218 0.63447197 -10.16879424 0.28304505 -8.75 -0.0625 C-7.96109375 -0.25972656 -7.1721875 -0.45695313 -6.359375 -0.66015625 C-3.89605178 -1.01497267 -2.34395868 -0.76877544 0 0 Z " fill="#A9ACBF" transform="translate(358,740)"/>
<path d="M0 0 C3.9252025 3.70090521 6.94580156 7.54959656 10 12 C9.67 12.66 9.34 13.32 9 14 C7.68 13.67 6.36 13.34 5 13 C4.731875 11.88625 4.46375 10.7725 4.1875 9.625 C3.34190981 5.78159049 3.34190981 5.78159049 0 4 C0 2.68 0 1.36 0 0 Z " fill="#B4C4E0" transform="translate(380,508)"/>
<path d="M0 0 C1.65 0 3.3 0 5 0 C5.67354499 1.43429001 6.33859701 2.87257057 7 4.3125 C7.556875 5.51326172 7.556875 5.51326172 8.125 6.73828125 C9 9 9 9 9 12 C7.49707257 10.18992669 5.99772829 8.37687764 4.5 6.5625 C3.6646875 5.55316406 2.829375 4.54382813 1.96875 3.50390625 C0 1 0 1 0 0 Z " fill="#898CA2" transform="translate(326,332)"/>
<path d="M0 0 C3.59634744 3.49359465 6.83451967 7.11098131 10 11 C9.67 11.66 9.34 12.32 9 13 C8.34 12.34 7.68 11.68 7 11 C6.33484375 10.89816406 5.6696875 10.79632813 4.984375 10.69140625 C4.32953125 10.46324219 3.6746875 10.23507812 3 10 C1.953125 7.71484375 1.953125 7.71484375 1.25 4.9375 C1.00765625 4.01839844 0.7653125 3.09929687 0.515625 2.15234375 C0.34546875 1.44207031 0.1753125 0.73179687 0 0 Z " fill="#B1BFDF" transform="translate(228,303)"/>
<path d="M0 0 C-1.72343755 0.84511824 -3.45404053 1.67563354 -5.1875 2.5 C-6.15042969 2.9640625 -7.11335938 3.428125 -8.10546875 3.90625 C-10.98922693 4.99592921 -12.95354861 5.22277524 -16 5 C-13.21983574 1.61167481 -11.21561338 -0.29037864 -6.875 -0.875 C-3 -1 -3 -1 0 0 Z " fill="#B0BCDC" transform="translate(491,751)"/>
<path d="M0 0 C4.92307692 4.18461538 4.92307692 4.18461538 5.3125 8.3125 C5.209375 9.199375 5.10625 10.08625 5 11 C3.02 11.99 3.02 11.99 1 13 C1.020625 11.783125 1.04125 10.56625 1.0625 9.3125 C1.06824116 6.08022678 0.78766315 3.15065259 0 0 Z " fill="#ADBBDA" transform="translate(528,720)"/>
<path d="M0 0 C4.85110358 4.41009417 8.348107 9.58004353 12 15 C11.67 15.66 11.34 16.32 11 17 C8.26050693 13.71260831 5.73415441 10.29434726 3.25 6.8125 C2.63640625 5.95269531 2.0228125 5.09289062 1.390625 4.20703125 C0 2 0 2 0 0 Z " fill="#CCD5EE" transform="translate(485,800)"/>
<path d="M0 0 C2.5999298 2.51027705 4.99091227 4.9863684 7 8 C7 8.66 7 9.32 7 10 C4.03824877 9.38722388 2.61941217 8.74627478 0 7 C-0.1875 3.375 -0.1875 3.375 0 0 Z " fill="#94A6CC" transform="translate(351,468)"/>
<path d="M0 0 C-0.99 0.33 -1.98 0.66 -3 1 C-3 1.99 -3 2.98 -3 4 C-5.64 4.66 -8.28 5.32 -11 6 C-9.47947256 2.95894512 -8.51878821 1.28533352 -5.5 -0.375 C-3 -1 -3 -1 0 0 Z " fill="#A0B0CE" transform="translate(488,773)"/>
<path d="M0 0 C-4.22564944 3.09193861 -7.77206411 4.9350501 -13 6 C-15.2109375 5.54296875 -15.2109375 5.54296875 -17 5 C-14.73392948 3.96724659 -12.46318061 2.94866449 -10.1875 1.9375 C-9.22360352 1.49567383 -9.22360352 1.49567383 -8.24023438 1.04492188 C-3.33984375 -1.11328125 -3.33984375 -1.11328125 0 0 Z " fill="#B5B7CA" transform="translate(155,741)"/>
<path d="M0 0 C2.37339853 1.85744232 2.9940468 2.97847688 3.8125 5.9375 C4.00613718 9.10024068 3.70401547 10.39385869 2 13 C1.34 13 0.68 13 0 13 C-0.042721 11.33388095 -0.04063832 9.66617115 0 8 C0.33 7.67 0.66 7.34 1 7 C0.71269945 4.66055264 0.38063221 2.3260857 0 0 Z " fill="#999BB1" transform="translate(398,709)"/>
<path d="M0 0 C3.88975419 3.59054233 6.89732195 7.73898882 10 12 C9.67 12.66 9.34 13.32 9 14 C8.443125 13.278125 7.88625 12.55625 7.3125 11.8125 C5.0461027 8.9298039 5.0461027 8.9298039 2.25 6.4375 C0 4 0 4 0 0 Z " fill="#B5C2DE" transform="translate(439,591)"/>
<path d="M0 0 C1.8871875 0.0309375 1.8871875 0.0309375 3.8125 0.0625 C0.56768249 2.22571167 -2.53805759 3.6939591 -6.1875 5.0625 C-7.1775 4.7325 -8.1675 4.4025 -9.1875 4.0625 C-8.5275 4.0625 -7.8675 4.0625 -7.1875 4.0625 C-7.1875 3.0725 -7.1875 2.0825 -7.1875 1.0625 C-4.43671116 0.14557039 -2.82801087 -0.04636083 0 0 Z " fill="#9596AD" transform="translate(210.1875,797.9375)"/>
<path d="M0 0 C4.21814817 3.9700218 7.61227103 8.30840284 11 13 C10.67 13.66 10.34 14.32 10 15 C8.5125035 13.25707481 7.03527508 11.50538246 5.5625 9.75 C4.73878906 8.77546875 3.91507812 7.8009375 3.06640625 6.796875 C1.25150943 4.3404173 0.38842559 2.96615903 0 0 Z " fill="#CBD7EC" transform="translate(443,745)"/>
<path d="M0 0 C-5.25570253 4.26138043 -10.37782792 5.10447495 -17 6 C-15.41733775 2.83467549 -12.23555882 2.41630936 -9.0625 1.3125 C-8.41603516 1.07466797 -7.76957031 0.83683594 -7.10351562 0.59179688 C-2.25215616 -1.12607808 -2.25215616 -1.12607808 0 0 Z " fill="#B6B8CA" transform="translate(133,750)"/>
<path d="M0 0 C1.485 0.99 1.485 0.99 3 2 C3 2.66 3 3.32 3 4 C3.66 4 4.32 4 5 4 C8 8.38461538 8 8.38461538 8 11 C6.35 11 4.7 11 3 11 C2.814375 9.948125 2.814375 9.948125 2.625 8.875 C1.96161655 5.82343613 1.02788045 2.94659062 0 0 Z " fill="#A3A5B9" transform="translate(503,430)"/>
<path d="M0 0 C3.97638733 2.8718353 6.51530859 5.76682204 9 10 C9 10.66 9 11.32 9 12 C8.01 12 7.02 12 6 12 C6 11.34 6 10.68 6 10 C5.34 10 4.68 10 4 10 C3.566875 8.63875 3.566875 8.63875 3.125 7.25 C2.23468224 4.67797092 1.28505587 2.38653234 0 0 Z " fill="#B0BBDB" transform="translate(276,367)"/>
<path d="M0 0 C2.93200474 2.85276137 5.64315404 5.65079784 8 9 C7.67 9.66 7.34 10.32 7 11 C5 10 5 10 4 7 C1.98491642 6.26676204 1.98491642 6.26676204 0 6 C0 4.02 0 2.04 0 0 Z " fill="#A0A2B6" transform="translate(437,340)"/>
<path d="M0 0 C3.59634744 3.49359465 6.83451967 7.11098131 10 11 C9.67 11.66 9.34 12.32 9 13 C7.88625 11.6078125 7.88625 11.6078125 6.75 10.1875 C5.11480042 8.19824012 3.81843437 6.87241334 1.6875 5.375 C1.130625 4.92125 0.57375 4.4675 0 4 C0 2.68 0 1.36 0 0 Z " fill="#C1CEE7" transform="translate(241,320)"/>
<path d="M0 0 C2.88437779 1.29299694 4.87219421 2.65941363 7 5 C6.67 5.99 6.34 6.98 6 8 C4.125 7.75 4.125 7.75 2 7 C0.27898465 4.41847698 0 3.15081975 0 0 Z " fill="#686A89" transform="translate(206,74)"/>
<path d="M0 0 C2.93200474 2.85276137 5.64315404 5.65079784 8 9 C7.67 9.66 7.34 10.32 7 11 C5 9.625 5 9.625 3 8 C3 7.34 3 6.68 3 6 C2.01 6.33 1.02 6.66 0 7 C0 4.69 0 2.38 0 0 Z " fill="#9899B1" transform="translate(464,376)"/>
<path d="M0 0 C2.93200474 2.85276137 5.64315404 5.65079784 8 9 C7.67 9.66 7.34 10.32 7 11 C4.0625 9.4375 4.0625 9.4375 1 7 C0.125 3.25 0.125 3.25 0 0 Z " fill="#A4B2D4" transform="translate(256,340)"/>
<path d="M0 0 C0.66 0 1.32 0 2 0 C2 0.66 2 1.32 2 2 C3.65 2.33 5.3 2.66 7 3 C7.33 5.31 7.66 7.62 8 10 C4.71211176 6.88983545 2.16264012 3.98381075 0 0 Z " fill="#9597AC" transform="translate(318,322)"/>
<path d="M0 0 C0.99 0.33 1.98 0.66 3 1 C4.4088468 5.61788672 5.28363377 10.22422512 6 15 C2.35219334 10.8310781 0 5.55196264 0 0 Z " fill="#B5B7C9" transform="translate(123,793)"/>
<path d="M0 0 C-1.5 2 -1.5 2 -4 4 C-6.75871627 4.35800135 -9.20097524 4.18660165 -12 4 C-8.15336308 0.86570325 -4.95471579 -1.65157193 0 0 Z " fill="#B4C0DB" transform="translate(500,768)"/>
<path d="M0 0 C0.54140625 0.23589844 1.0828125 0.47179687 1.640625 0.71484375 C-0.47935334 1.91218363 -2.60451176 3.09783088 -4.734375 4.27734375 C-5.33765625 4.61958984 -5.9409375 4.96183594 -6.5625 5.31445312 C-8.12915741 6.1761147 -9.74228362 6.95202558 -11.359375 7.71484375 C-12.019375 7.38484375 -12.679375 7.05484375 -13.359375 6.71484375 C-11.61979359 5.51213316 -9.86727755 4.32811365 -8.109375 3.15234375 C-6.64757812 2.16041016 -6.64757812 2.16041016 -5.15625 1.1484375 C-2.359375 -0.28515625 -2.359375 -0.28515625 0 0 Z " fill="#BABCCF" transform="translate(598.359375,640.28515625)"/>
<path d="M0 0 C4.24404412 3.88026891 7.10917547 8.04254346 10 13 C6.37114422 11.54845769 4.84567327 9.7599362 2.75 6.5 C1.96882813 5.30890625 1.96882813 5.30890625 1.171875 4.09375 C0 2 0 2 0 0 Z " fill="#C3CEE8" transform="translate(361,628)"/>
<path d="M0 0 C6.57142857 5 6.57142857 5 8 10 C5.125 9.5 5.125 9.5 2 8 C0.81724148 5.31689039 0.47288244 2.9318711 0 0 Z " fill="#ADBCD9" transform="translate(156,210)"/>
<path d="M0 0 C2.33333333 4.66666667 4.66666667 9.33333333 7 14 C1.93937179 10.44388288 -0.06971929 6.79084214 -2 1 C-1.34 0.67 -0.68 0.34 0 0 Z " fill="#81839C" transform="translate(203,182)"/>
<path d="M0 0 C-3.46735947 3.03393954 -7.52949826 4.9351577 -12 6 C-12.99 5.67 -13.98 5.34 -15 5 C-13.44424022 4.15415002 -11.8800388 3.32381601 -10.3125 2.5 C-9.44238281 2.0359375 -8.57226562 1.571875 -7.67578125 1.09375 C-4.88211171 -0.04818792 -2.98370887 -0.21504208 0 0 Z " fill="#BCBFD0" transform="translate(280,771)"/>
<path d="M0 0 C-1.59915881 0.69906942 -3.20455045 1.38389468 -4.8125 2.0625 C-5.70582031 2.44535156 -6.59914062 2.82820312 -7.51953125 3.22265625 C-10 4 -10 4 -13 3 C-11 0 -11 0 -7.625 -0.75 C-4.53783284 -0.96290808 -2.86420237 -0.83276368 0 0 Z " fill="#ADBADB" transform="translate(142,727)"/>
<path d="M0 0 C-2.84685749 2.31966166 -5.4763875 3.91581154 -9 5 C-9.99 4.67 -10.98 4.34 -12 4 C-3.13924051 -1.56962025 -3.13924051 -1.56962025 0 0 Z " fill="#ACAEC0" transform="translate(172,815)"/>
<path d="M0 0 C3.39417765 3.12621626 5.6062718 5.56541027 7 10 C3.64501065 8.61172854 1.84949545 7.14414226 0 4 C0 2.68 0 1.36 0 0 Z " fill="#B0BCDA" transform="translate(476,644)"/>
<path d="M0 0 C3.39417765 3.12621626 5.6062718 5.56541027 7 10 C3.64501065 8.61172854 1.84949545 7.14414226 0 4 C0 2.68 0 1.36 0 0 Z " fill="#A4A7BA" transform="translate(496,420)"/>
<path d="M0 0 C1.65 1.65 3.3 3.3 5 5 C4.67 5.66 4.34 6.32 4 7 C1.5625 6.25 1.5625 6.25 -1 5 C-1.8125 2.875 -1.8125 2.875 -2 1 C-1.34 0.67 -0.68 0.34 0 0 Z " fill="#96A6CD" transform="translate(251,333)"/>
<path d="M0 0 C2.66666667 2.66666667 5.33333333 5.33333333 8 8 C7.67 8.66 7.34 9.32 7 10 C6.34 9.34 5.68 8.68 5 8 C2.39719432 8.32041397 2.39719432 8.32041397 0 9 C0.185625 8.071875 0.37125 7.14375 0.5625 6.1875 C1.24123881 2.98656229 1.24123881 2.98656229 0 0 Z " fill="#9496AE" transform="translate(392,283)"/>
<path d="M0 0 C-1.6232687 0.6708712 -3.24867578 1.33657029 -4.875 2 C-6.23238281 2.556875 -6.23238281 2.556875 -7.6171875 3.125 C-10 4 -10 4 -12 4 C-12 3.34 -12 2.68 -12 2 C-11.34 2 -10.68 2 -10 2 C-10 1.34 -10 0.68 -10 0 C-3.375 -1.125 -3.375 -1.125 0 0 Z " fill="#A9AABC" transform="translate(302,763)"/>
<path d="M0 0 C3.39417765 3.12621626 5.6062718 5.56541027 7 10 C4.625 9.5 4.625 9.5 2 8 C0.91758097 5.33474712 0.50727893 2.8592085 0 0 Z " fill="#B5C2DF" transform="translate(469,634)"/>
<path d="M0 0 C3.08089673 2.77280706 4.68775452 5.06326356 6 9 C5.01 8.67 4.02 8.34 3 8 C2.67 8.66 2.34 9.32 2 10 C1.34 6.7 0.68 3.4 0 0 Z " fill="#A4B2D6" transform="translate(520,708)"/>
<path d="M0 0 C3.08089673 2.77280706 4.68775452 5.06326356 6 9 C5.01 9 4.02 9 3 9 C0.50022457 5.66696609 0 4.26696398 0 0 Z " fill="#A9B6D9" transform="translate(514,699)"/>
<path d="M0 0 C-2.87164566 2.70272533 -4.30991841 3.94791837 -8.3125 4.25 C-9.199375 4.1675 -10.08625 4.085 -11 4 C-3.77464789 -1.88732394 -3.77464789 -1.88732394 0 0 Z " fill="#4C506E" transform="translate(315,677)"/>
<path d="M0 0 C3.67033927 3.27708863 5.69281189 6.71522208 8 11 C3.78926767 9.49616703 2.16762883 6.79335044 0 3 C0 2.01 0 1.02 0 0 Z " fill="#C1CEE9" transform="translate(282,515)"/>
<path d="M0 0 C0.68707555 2.49064888 1 4.37886292 1 7 C-0.65 7.66 -2.3 8.32 -4 9 C-2.94124926 5.59687262 -1.99097846 2.98646769 0 0 Z " fill="#8B8EA4" transform="translate(141,75)"/>
<path d="M0 0 C0.845625 0.474375 1.69125 0.94875 2.5625 1.4375 C6.12587329 3.05721513 9.12561425 3.61256143 13 4 C13 4.33 13 4.66 13 5 C11.39667209 5.08121924 9.79215974 5.13929134 8.1875 5.1875 C7.29417969 5.22230469 6.40085937 5.25710938 5.48046875 5.29296875 C3 5 3 5 1.17578125 3.61328125 C0 2 0 2 0 0 Z " fill="#A9B9D8" transform="translate(497,817)"/>
<path d="M0 0 C1.36125 0.12375 1.36125 0.12375 2.75 0.25 C1.76 0.745 1.76 0.745 0.75 1.25 C0.75 1.91 0.75 2.57 0.75 3.25 C-3.875 5.375 -3.875 5.375 -7.25 4.25 C-4.83923194 1.28290085 -3.90322061 0.30024774 0 0 Z " fill="#A4B1D4" transform="translate(170.25,712.75)"/>
<path d="M0 0 C3.39417765 3.12621626 5.6062718 5.56541027 7 10 C5.82174642 9.09827532 4.65768423 8.17798498 3.5 7.25 C2.8503125 6.73953125 2.200625 6.2290625 1.53125 5.703125 C0 4 0 4 0 0 Z " fill="#C0CEE6" transform="translate(367,490)"/>
<path d="M0 0 C2.60608273 2.5162178 4.89381685 5.05134359 7 8 C6.67 8.66 6.34 9.32 6 10 C3.5625 8.9375 3.5625 8.9375 1 7 C0.1875 3.3125 0.1875 3.3125 0 0 Z " fill="#9B9CB3" transform="translate(534,475)"/>
<path d="M0 0 C2.5 2.3125 2.5 2.3125 5 5 C5 5.99 5 6.98 5 8 C2.525 7.01 2.525 7.01 0 6 C0 4.02 0 2.04 0 0 Z " fill="#9CB0D1" transform="translate(339,452)"/>
<path d="M0 0 C0.33 1.32 0.66 2.64 1 4 C0.01 4.33 -0.98 4.66 -2 5 C-2.70381157 6.98723268 -3.3711811 8.98777953 -4 11 C-4.99 11.495 -4.99 11.495 -6 12 C-4.68139111 7.38486888 -2.78644563 3.90102388 0 0 Z " fill="#B8BBCB" transform="translate(136,84)"/>
<path d="M0 0 C1.98 0 3.96 0 6 0 C2.8745041 2.64465038 -0.08788267 3.84414715 -4 5 C-3.67 4.01 -3.34 3.02 -3 2 C-2.01 2 -1.02 2 0 2 C0 1.34 0 0.68 0 0 Z " fill="#6F84B2" transform="translate(526,811)"/>
<path d="M0 0 C0.99 0.33 1.98 0.66 3 1 C3 1.66 3 2.32 3 3 C-0.13498292 4.85776765 -2.37471432 5.20140476 -6 5 C-5.67 4.34 -5.34 3.68 -5 3 C-3.68 3 -2.36 3 -1 3 C-0.67 2.01 -0.34 1.02 0 0 Z " fill="#5A75AE" transform="translate(535,806)"/>
<path d="M0 0 C1.65 0 3.3 0 5 0 C3.47298956 3.05402088 1.04842088 3.65869481 -2 5 C-2.99 5 -3.98 5 -5 5 C-5 4.34 -5 3.68 -5 3 C-3.68 3 -2.36 3 -1 3 C-0.67 2.01 -0.34 1.02 0 0 Z " fill="#667DAF" transform="translate(474,753)"/>
<path d="M0 0 C2.74277578 3.19990508 4.6302836 6.00499382 6 10 C3 9 3 9 1.3125 6.6875 C0 4 0 4 0 0 Z " fill="#ADAFC3" transform="translate(611,594)"/>
<path d="M0 0 C1.65 1.32 3.3 2.64 5 4 C4.67 5.32 4.34 6.64 4 8 C2 6.8125 2 6.8125 0 5 C-0.25 2.3125 -0.25 2.3125 0 0 Z " fill="#797994" transform="translate(606,588)"/>
<path d="M0 0 C1.65 1.65 3.3 3.3 5 5 C4.67 5.66 4.34 6.32 4 7 C1.525 6.01 1.525 6.01 -1 5 C-0.67 3.35 -0.34 1.7 0 0 Z " fill="#7E819C" transform="translate(529,468)"/>
<path d="M0 0 C-0.33 0.99 -0.66 1.98 -1 3 C-3.31 2.34 -5.62 1.68 -8 1 C-8 0.34 -8 -0.32 -8 -1 C-4.59745511 -2.2151946 -3.06748874 -1.86240388 0 0 Z " fill="#687EB2" transform="translate(199,393)"/>
<path d="M0 0 C2.5 1.3125 2.5 1.3125 5 3 C5 3.99 5 4.98 5 6 C4.01 5.34 3.02 4.68 2 4 C1.67 4.66 1.34 5.32 1 6 C0.34 6 -0.32 6 -1 6 C-0.67 4.02 -0.34 2.04 0 0 Z " fill="#7B809C" transform="translate(431,334)"/>
<path d="M0 0 C2.96404505 2.80804268 5.44499019 5.18315774 7 9 C4.625 8.4375 4.625 8.4375 2 7 C0.6875 3.375 0.6875 3.375 0 0 Z " fill="#ABB9D7" transform="translate(214,285)"/>
<path d="M0 0 C0.66 0.33 1.32 0.66 2 1 C-0.52956528 4.0916909 -3.22454612 4.90931332 -7 6 C-7.33 5.34 -7.66 4.68 -8 4 C-6.71349294 3.30289269 -5.42059335 2.61757124 -4.125 1.9375 C-3.40570313 1.55464844 -2.68640625 1.17179688 -1.9453125 0.77734375 C-1.30335938 0.52082031 -0.66140625 0.26429688 0 0 Z " fill="#5A5E7A" transform="translate(285,687)"/>
<path d="M0 0 C3.39417765 3.12621626 5.6062718 5.56541027 7 10 C5.82174642 9.09827532 4.65768423 8.17798498 3.5 7.25 C2.8503125 6.73953125 2.200625 6.2290625 1.53125 5.703125 C0 4 0 4 0 0 Z " fill="#C5D2E6" transform="translate(449,605)"/>
<path d="M0 0 C1.875 0.5625 1.875 0.5625 4 2 C5.25 5.625 5.25 5.625 6 9 C2.91910327 6.22719294 1.31224548 3.93673644 0 0 Z " fill="#5F78AB" transform="translate(286,519)"/>
<path d="M0 0 C4.875 4.625 4.875 4.625 6 8 C4.68 8 3.36 8 2 8 C1.34 5.36 0.68 2.72 0 0 Z " fill="#B0C0DA" transform="translate(345,460)"/>
<path d="M0 0 C3.7952131 1.49097658 5.61042731 3.75700849 8 7 C7.67 7.66 7.34 8.32 7 9 C3.26115668 6.34345343 1.35021826 4.41889613 0 0 Z " fill="#BDC0D2" transform="translate(300,174)"/>
<path d="M0 0 C4.84455959 2.37823834 4.84455959 2.37823834 7 4 C7.9375 6.75 7.9375 6.75 8 9 C6 9 6 9 4.4921875 7.5390625 C3.95851562 6.90742188 3.42484375 6.27578125 2.875 5.625 C2.06675781 4.68527344 2.06675781 4.68527344 1.2421875 3.7265625 C0 2 0 2 0 0 Z " fill="#B4B5C8" transform="translate(152,129)"/>
<path d="M0 0 C2.75 -0.25 2.75 -0.25 6 0 C8.375 2 8.375 2 10 4 C8.35 4 6.7 4 5 4 C5 3.01 5 2.02 5 1 C3.35 1 1.7 1 0 1 C0 0.67 0 0.34 0 0 Z " fill="#6780B1" transform="translate(534,753)"/>
<path d="M0 0 C0.99 0.33 1.98 0.66 3 1 C2.67 1.66 2.34 2.32 2 3 C2.66 3.33 3.32 3.66 4 4 C1.69 4 -0.62 4 -3 4 C-2.67 3.01 -2.34 2.02 -2 1 C-1.34 0.67 -0.68 0.34 0 0 Z " fill="#787A94" transform="translate(172,732)"/>
<path d="M0 0 C5.57142857 5.14285714 5.57142857 5.14285714 6 9 C5.34 9 4.68 9 4 9 C3.67 8.01 3.34 7.02 3 6 C2.01 5.34 1.02 4.68 0 4 C0 2.68 0 1.36 0 0 Z " fill="#C1CDE8" transform="translate(497,674)"/>
<path d="M0 0 C2.27521866 2.16687491 4.15794162 4.45620509 6 7 C5.67 7.66 5.34 8.32 5 9 C2.5 6.75 2.5 6.75 0 4 C0 2.68 0 1.36 0 0 Z " fill="#B8C4E0" transform="translate(486,658)"/>
<path d="M0 0 C2.5 2.3125 2.5 2.3125 5 5 C5 5.99 5 6.98 5 8 C2.5 6.25 2.5 6.25 0 4 C0 2.68 0 1.36 0 0 Z " fill="#B5C3E0" transform="translate(412,553)"/>
<path d="M0 0 C1.70884005 1.62339805 3.37446717 3.29319053 5 5 C5 5.66 5 6.32 5 7 C3.68 6.67 2.36 6.34 1 6 C0.67 4.02 0.34 2.04 0 0 Z " fill="#A5B1D4" transform="translate(312,415)"/>
<path d="M0 0 C2.5 2.3125 2.5 2.3125 5 5 C5 5.99 5 6.98 5 8 C4.01 7.67 3.02 7.34 2 7 C0.8125 3.4375 0.8125 3.4375 0 0 Z " fill="#A2A5B8" transform="translate(480,398)"/>
<path d="M0 0 C2.5 2.3125 2.5 2.3125 5 5 C5 5.99 5 6.98 5 8 C4.360625 7.67 3.72125 7.34 3.0625 7 C1.23205433 5.92728775 1.23205433 5.92728775 0 6 C0 4.02 0 2.04 0 0 Z " fill="#B0BEDD" transform="translate(169,226)"/>
<path d="M0 0 C0.6875 1.6875 0.6875 1.6875 1 4 C-0.3125 6.75 -0.3125 6.75 -2 9 C-2.66 9 -3.32 9 -4 9 C-2.94124926 5.59687262 -1.99097846 2.98646769 0 0 Z " fill="#A8A8BD" transform="translate(151,57)"/>
<path d="M0 0 C5.57142857 5.14285714 5.57142857 5.14285714 6 9 C1.3125 5.484375 1.3125 5.484375 0 4 C0 2.68 0 1.36 0 0 Z " fill="#C7D1EB" transform="translate(508,690)"/>
<path d="M0 0 C5.57142857 5.14285714 5.57142857 5.14285714 6 9 C1.3125 5.484375 1.3125 5.484375 0 4 C0 2.68 0 1.36 0 0 Z " fill="#C2C3D5" transform="translate(563,518)"/>
<path d="M0 0 C0.99 0.33 1.98 0.66 3 1 C3 1.99 3 2.98 3 4 C3.66 4 4.32 4 5 4 C5.33 5.65 5.66 7.3 6 9 C2.91910327 6.22719294 1.31224548 3.93673644 0 0 Z " fill="#657AB0" transform="translate(229,438)"/>
<path d="M0 0 C1.65 1.65 3.3 3.3 5 5 C4.67 5.66 4.34 6.32 4 7 C3.01 7 2.02 7 1 7 C0.67 4.69 0.34 2.38 0 0 Z " fill="#A0A3BA" transform="translate(456,365)"/>
<path d="M0 0 C4.875 4.625 4.875 4.625 6 8 C5.01 8.33 4.02 8.66 3 9 C2 6 1 3 0 0 Z " fill="#B2C1DF" transform="translate(208,277)"/>
<path d="M0 0 C4.875 4.75 4.875 4.75 6 7 C4.125 6.875 4.125 6.875 2 6 C0.75 2.9375 0.75 2.9375 0 0 Z " fill="#9A9AB4" transform="translate(322,199)"/>
<path d="M0 0 C3.465 1.98 3.465 1.98 7 4 C7 4.99 7 5.98 7 7 C6.01 7 5.02 7 4 7 C0 2.65714286 0 2.65714286 0 0 Z " fill="#9D9FB6" transform="translate(174,154)"/>
<path d="M0 0 C0.66 0 1.32 0 2 0 C1.38722388 2.96175123 0.74627478 4.38058783 -1 7 C-1.66 7 -2.32 7 -3 7 C-1.125 1.125 -1.125 1.125 0 0 Z " fill="#5D627E" transform="translate(161,41)"/>
<path d="M0 0 C0.99 0.33 1.98 0.66 3 1 C2.67 1.66 2.34 2.32 2 3 C1.34 2.67 0.68 2.34 0 2 C0 1.34 0 0.68 0 0 Z " fill="#F8FBEF" transform="translate(416,713)"/>
<path d="M0 0 C0.99 0.99 1.98 1.98 3 3 C2.01 3 1.02 3 0 3 C0 2.01 0 1.02 0 0 Z " fill="#F6F8EE" transform="translate(179,165)"/>
<path d="M0 0 C0.99 1.485 0.99 1.485 2 3 C1.34 3 0.68 3 0 3 C0 2.01 0 1.02 0 0 Z " fill="#F3F5EF" transform="translate(379,674)"/>
<path d="M0 0 C0.66 0.33 1.32 0.66 2 1 C1.01 1 0.02 1 -1 1 C-0.67 0.67 -0.34 0.34 0 0 Z " fill="#F6F8EC" transform="translate(371,252)"/>
<path d="M0 0 C0.33 0.66 0.66 1.32 1 2 C0.34 1.67 -0.32 1.34 -1 1 C-0.67 0.67 -0.34 0.34 0 0 Z " fill="#FBF9EF" transform="translate(134,826)"/>
<path d="M0 0 C0.33 0.66 0.66 1.32 1 2 C0.34 1.67 -0.32 1.34 -1 1 C-0.67 0.67 -0.34 0.34 0 0 Z " fill="#F8F4EE" transform="translate(269,778)"/>
<path d="M0 0 C3 1 3 1 3 1 Z " fill="#F7F8ED" transform="translate(123,748)"/>
<path d="M0 0 C0.33 0.66 0.66 1.32 1 2 C0.34 1.67 -0.32 1.34 -1 1 C-0.67 0.67 -0.34 0.34 0 0 Z " fill="#F7FAED" transform="translate(466,620)"/>
<path d="M0 0 C0.99 0.495 0.99 0.495 2 1 C1.01 1.495 1.01 1.495 0 2 C0 1.34 0 0.68 0 0 Z " fill="#F9F8EF" transform="translate(302,550)"/>
<path d="M0 0 C0.66 0.66 1.32 1.32 2 2 C1.34 2 0.68 2 0 2 C0 1.34 0 0.68 0 0 Z " fill="#F6FAEF" transform="translate(231,303)"/>
<path d="M0 0 C0.66 0.66 1.32 1.32 2 2 C1.34 2 0.68 2 0 2 C0 1.34 0 0.68 0 0 Z " fill="#F5F7EE" transform="translate(131,172)"/>
<path d="M0 0 C0.99 0.495 0.99 0.495 2 1 C1.01 1.495 1.01 1.495 0 2 C0 1.34 0 0.68 0 0 Z " fill="#F7F9EF" transform="translate(151,133)"/>
<path d="M0 0 C2 1 2 1 2 1 Z " fill="#F4F5EF" transform="translate(177,817)"/>
<path d="" fill="#F7F6F0" transform="translate(0,0)"/>
<path d="M0 0 C2 1 2 1 2 1 Z " fill="#F4F5EF" transform="translate(550,666)"/>
<path d="M0 0 C2 1 2 1 2 1 Z " fill="#F5F8F0" transform="translate(337,662)"/>
<path d="" fill="#FAF7F0" transform="translate(0,0)"/>
<path d="" fill="#FBF8F0" transform="translate(0,0)"/>
<path d="M0 0 C2 1 2 1 2 1 Z " fill="#F9FAF0" transform="translate(264,498)"/>
<path d="" fill="#F5F6EE" transform="translate(0,0)"/>
<path d="" fill="#FBF8EF" transform="translate(0,0)"/>
<path d="" fill="#FDFCF0" transform="translate(0,0)"/>
<path d="M0 0 C2 1 2 1 2 1 Z " fill="#F3F3F0" transform="translate(374,399)"/>
<path d="" fill="#F4F4EF" transform="translate(0,0)"/>
<path d="" fill="#F8F7EF" transform="translate(0,0)"/>
<path d="M0 0 C2 1 2 1 2 1 Z " fill="#F3F4EF" transform="translate(469,380)"/>
<path d="M0 0 C2 1 2 1 2 1 Z " fill="#F7F8F0" transform="translate(454,357)"/>
<path d="M0 0 C2 1 2 1 2 1 Z " fill="#F7F9EF" transform="translate(327,346)"/>
<path d="" fill="#FBFBEE" transform="translate(0,0)"/>
<path d="" fill="#F9F6EE" transform="translate(0,0)"/>
<path d="" fill="#F7F9EE" transform="translate(0,0)"/>
<path d="" fill="#F6F6EC" transform="translate(0,0)"/>
<path d="M0 0 C2 1 2 1 2 1 Z " fill="#F4F4EF" transform="translate(161,146)"/>
<path d="" fill="#F5F7EE" transform="translate(0,0)"/>
<path d="" fill="#F2F3EF" transform="translate(0,0)"/>
<path d="M0 0 C2 1 2 1 2 1 Z " fill="#F5F7F0" transform="translate(206,69)"/>
<path d="" fill="#F6F6EF" transform="translate(0,0)"/>
<path d="" fill="#F4F5F0" transform="translate(0,0)"/>
<path d="" fill="#F5F6F0" transform="translate(0,0)"/>
<path d="" fill="#FCFCF0" transform="translate(0,0)"/>
<path d="" fill="#F3F4EF" transform="translate(0,0)"/>
<path d="" fill="#FAFCEF" transform="translate(0,0)"/>
<path d="" fill="#FBFDF0" transform="translate(0,0)"/>
<path d="" fill="#F6F5F0" transform="translate(0,0)"/>
<path d="" fill="#F8F8F0" transform="translate(0,0)"/>
<path d="" fill="#F4F7F0" transform="translate(0,0)"/>
<path d="" fill="#F4F3EF" transform="translate(0,0)"/>
<path d="" fill="#F6F5F0" transform="translate(0,0)"/>
<path d="" fill="#F8F8F0" transform="translate(0,0)"/>
<path d="" fill="#FCF9F0" transform="translate(0,0)"/>
<path d="" fill="#FDFBEE" transform="translate(0,0)"/>
<path d="" fill="#F4FAF0" transform="translate(0,0)"/>
<path d="" fill="#F7F8F0" transform="translate(0,0)"/>
<path d="" fill="#F3F4EF" transform="translate(0,0)"/>
<path d="" fill="#F1F0F5" transform="translate(0,0)"/>
<path d="" fill="#FAF7F0" transform="translate(0,0)"/>
<path d="" fill="#F8F5EE" transform="translate(0,0)"/>
<path d="" fill="#F2F4EF" transform="translate(0,0)"/>
<path d="" fill="#F7F3F0" transform="translate(0,0)"/>
<path d="" fill="#F8F8F0" transform="translate(0,0)"/>
<path d="" fill="#F6F3EE" transform="translate(0,0)"/>
<path d="" fill="#F9F9EF" transform="translate(0,0)"/>
<path d="" fill="#F5F4F0" transform="translate(0,0)"/>
<path d="" fill="#F3EEF4" transform="translate(0,0)"/>
<path d="" fill="#F7F7EF" transform="translate(0,0)"/>
<path d="" fill="#FAF7F0" transform="translate(0,0)"/>
<path d="" fill="#FAF5EF" transform="translate(0,0)"/>
<path d="" fill="#F8FAEF" transform="translate(0,0)"/>
<path d="" fill="#F3F5F0" transform="translate(0,0)"/>
<path d="" fill="#F4F3EF" transform="translate(0,0)"/>
<path d="" fill="#F3F0F7" transform="translate(0,0)"/>
<path d="" fill="#F4F3EF" transform="translate(0,0)"/>
<path d="" fill="#F4F5F0" transform="translate(0,0)"/>
<path d="" fill="#F5F6F0" transform="translate(0,0)"/>
<path d="" fill="#F8F8F0" transform="translate(0,0)"/>
<path d="" fill="#F5F4F0" transform="translate(0,0)"/>
<path d="" fill="#FBF7EE" transform="translate(0,0)"/>
<path d="" fill="#F7F8F0" transform="translate(0,0)"/>
<path d="" fill="#F7F7EF" transform="translate(0,0)"/>
<path d="" fill="#F4F5F0" transform="translate(0,0)"/>
<path d="" fill="#F3F5F0" transform="translate(0,0)"/>
<path d="" fill="#F7F7EF" transform="translate(0,0)"/>
<path d="" fill="#F6F7EF" transform="translate(0,0)"/>
<path d="" fill="#F9F9EF" transform="translate(0,0)"/>
<path d="" fill="#F7F8F0" transform="translate(0,0)"/>
<path d="" fill="#FCF9F0" transform="translate(0,0)"/>
<path d="" fill="#F8F3ED" transform="translate(0,0)"/>
<path d="" fill="#F3F2ED" transform="translate(0,0)"/>
<path d="" fill="#F5F6F0" transform="translate(0,0)"/>
<path d="" fill="#F6F7EF" transform="translate(0,0)"/>
<path d="" fill="#F1F1EF" transform="translate(0,0)"/>
<path d="" fill="#F5F6F0" transform="translate(0,0)"/>
<path d="" fill="#F7F8F0" transform="translate(0,0)"/>
<path d="" fill="#FAF7F0" transform="translate(0,0)"/>
<path d="" fill="#F0F4F5" transform="translate(0,0)"/>
<path d="" fill="#F3F4EF" transform="translate(0,0)"/>
<path d="" fill="#F6F7EF" transform="translate(0,0)"/>
<path d="" fill="#F3F2F0" transform="translate(0,0)"/>
<path d="" fill="#F2F3EE" transform="translate(0,0)"/>
<path d="" fill="#F0F1EB" transform="translate(0,0)"/>
<path d="" fill="#F7F8F0" transform="translate(0,0)"/>
<path d="" fill="#F5F6EE" transform="translate(0,0)"/>
<path d="" fill="#FAFEF0" transform="translate(0,0)"/>
<path d="" fill="#F0F0EE" transform="translate(0,0)"/>
<path d="" fill="#EFEEF3" transform="translate(0,0)"/>
<path d="" fill="#F5F5ED" transform="translate(0,0)"/>
<path d="" fill="#F1F1EF" transform="translate(0,0)"/>
<path d="" fill="#F6F6EE" transform="translate(0,0)"/>
<path d="" fill="#F4F5EF" transform="translate(0,0)"/>
<path d="" fill="#F6F5F0" transform="translate(0,0)"/>
<path d="" fill="#F6F6EE" transform="translate(0,0)"/>
<path d="" fill="#F2F3ED" transform="translate(0,0)"/>
<path d="" fill="#F5F6F0" transform="translate(0,0)"/>
<path d="" fill="#F4F5F0" transform="translate(0,0)"/>
<path d="" fill="#F4F5F0" transform="translate(0,0)"/>
<path d="" fill="#F8F8F0" transform="translate(0,0)"/>
<path d="" fill="#F4F5F0" transform="translate(0,0)"/>
<path d="" fill="#F7F8F0" transform="translate(0,0)"/>
<path d="" fill="#F8F8F0" transform="translate(0,0)"/>
<path d="" fill="#F8F8F0" transform="translate(0,0)"/>
<path d="" fill="#F2F0F1" transform="translate(0,0)"/>
<path d="" fill="#F9F9EF" transform="translate(0,0)"/>
<path d="" fill="#F9F9EF" transform="translate(0,0)"/>
<path d="" fill="#F2F3EE" transform="translate(0,0)"/>
<path d="" fill="#F4F7F0" transform="translate(0,0)"/>
<path d="" fill="#F5F4EF" transform="translate(0,0)"/>
<path d="" fill="#F7F8F0" transform="translate(0,0)"/>
<path d="" fill="#F4F5F0" transform="translate(0,0)"/>
</svg>
